solid ASCII
  facet normal 9.972169e-01 0.000000e+00 -7.455526e-02
    outer loop
      vertex   1.977411e+01 6.100000e+01 -2.948077e+00
      vertex   1.977411e+01 5.558333e+01 -2.948077e+00
      vertex   1.975529e+01 6.100000e+01 -3.199841e+00
    endloop
  endfacet
  facet normal 9.972169e-01 0.000000e+00 -7.455526e-02
    outer loop
      vertex   1.975529e+01 6.100000e+01 -3.199841e+00
      vertex   1.977411e+01 5.558333e+01 -2.948077e+00
      vertex   1.977411e+01 5.016667e+01 -2.948077e+00
    endloop
  endfacet
  facet normal 9.972169e-01 0.000000e+00 -7.455526e-02
    outer loop
      vertex   1.975529e+01 6.100000e+01 -3.199841e+00
      vertex   1.977411e+01 5.016667e+01 -2.948077e+00
      vertex   1.977411e+01 4.475000e+01 -2.948077e+00
    endloop
  endfacet
  facet normal 9.841081e-01 -0.000000e+00 1.775705e-01
    outer loop
      vertex   1.977411e+01 4.475000e+01 -2.948077e+00
      vertex   1.977411e+01 5.016667e+01 -2.948077e+00
      vertex   1.972928e+01 4.475000e+01 -2.699623e+00
    endloop
  endfacet
  facet normal 9.841081e-01 0.000000e+00 1.775705e-01
    outer loop
      vertex   1.977411e+01 4.475000e+01 -2.948077e+00
      vertex   1.972928e+01 4.475000e+01 -2.699623e+00
      vertex   1.972928e+01 3.933333e+01 -2.699623e+00
    endloop
  endfacet
  facet normal 9.082730e-01 -0.000000e+00 4.183780e-01
    outer loop
      vertex   1.972928e+01 3.933333e+01 -2.699623e+00
      vertex   1.972928e+01 4.475000e+01 -2.699623e+00
      vertex   1.962365e+01 3.933333e+01 -2.470315e+00
    endloop
  endfacet
  facet normal 9.082730e-01 0.000000e+00 4.183780e-01
    outer loop
      vertex   1.972928e+01 3.933333e+01 -2.699623e+00
      vertex   1.962365e+01 3.933333e+01 -2.470315e+00
      vertex   1.962365e+01 3.391667e+01 -2.470315e+00
    endloop
  endfacet
  facet normal 7.745453e-01 -0.000000e+00 6.325185e-01
    outer loop
      vertex   1.962365e+01 3.391667e+01 -2.470315e+00
      vertex   1.962365e+01 3.933333e+01 -2.470315e+00
      vertex   1.946396e+01 3.391667e+01 -2.274768e+00
    endloop
  endfacet
  facet normal 7.745453e-01 0.000000e+00 6.325185e-01
    outer loop
      vertex   1.962365e+01 3.391667e+01 -2.470315e+00
      vertex   1.946396e+01 3.391667e+01 -2.274768e+00
      vertex   1.946396e+01 2.850000e+01 -2.274768e+00
    endloop
  endfacet
  facet normal 5.914486e-01 -0.000000e+00 8.063427e-01
    outer loop
      vertex   1.946396e+01 2.850000e+01 -2.274768e+00
      vertex   1.946396e+01 3.391667e+01 -2.274768e+00
      vertex   1.926039e+01 2.850000e+01 -2.125447e+00
    endloop
  endfacet
  facet normal 5.914486e-01 0.000000e+00 8.063427e-01
    outer loop
      vertex   1.946396e+01 2.850000e+01 -2.274768e+00
      vertex   1.926039e+01 2.850000e+01 -2.125447e+00
      vertex   1.926039e+01 2.308333e+01 -2.125447e+00
    endloop
  endfacet
  facet normal 3.706535e-01 -0.000000e+00 9.287712e-01
    outer loop
      vertex   1.926039e+01 2.308333e+01 -2.125447e+00
      vertex   1.926039e+01 2.850000e+01 -2.125447e+00
      vertex   1.902591e+01 2.308333e+01 -2.031870e+00
    endloop
  endfacet
  facet normal 3.706535e-01 0.000000e+00 9.287712e-01
    outer loop
      vertex   1.926039e+01 2.308333e+01 -2.125447e+00
      vertex   1.902591e+01 2.308333e+01 -2.031870e+00
      vertex   1.902591e+01 1.766667e+01 -2.031870e+00
    endloop
  endfacet
  facet normal 1.262332e-01 -0.000000e+00 9.920006e-01
    outer loop
      vertex   1.902591e+01 1.766667e+01 -2.031870e+00
      vertex   1.902591e+01 2.308333e+01 -2.031870e+00
      vertex   1.877546e+01 -4.000000e+00 -2.000000e+00
    endloop
  endfacet
  facet normal 1.262332e-01 0.000000e+00 9.920006e-01
    outer loop
      vertex   1.902591e+01 1.766667e+01 -2.031870e+00
      vertex   1.877546e+01 -4.000000e+00 -2.000000e+00
      vertex   1.902591e+01 1.225000e+01 -2.031870e+00
    endloop
  endfacet
  facet normal 1.262332e-01 0.000000e+00 9.920006e-01
    outer loop
      vertex   1.902591e+01 1.225000e+01 -2.031870e+00
      vertex   1.877546e+01 -4.000000e+00 -2.000000e+00
      vertex   1.902591e+01 6.833334e+00 -2.031870e+00
    endloop
  endfacet
  facet normal 3.706535e-01 0.000000e+00 9.287712e-01
    outer loop
      vertex   1.902591e+01 1.225000e+01 -2.031870e+00
      vertex   1.902591e+01 6.833334e+00 -2.031870e+00
      vertex   1.926039e+01 1.225000e+01 -2.125447e+00
    endloop
  endfacet
  facet normal 3.706535e-01 0.000000e+00 9.287712e-01
    outer loop
      vertex   1.926039e+01 1.225000e+01 -2.125447e+00
      vertex   1.902591e+01 6.833334e+00 -2.031870e+00
      vertex   1.926039e+01 6.833334e+00 -2.125447e+00
    endloop
  endfacet
  facet normal 5.914486e-01 0.000000e+00 8.063427e-01
    outer loop
      vertex   1.926039e+01 1.225000e+01 -2.125447e+00
      vertex   1.926039e+01 6.833334e+00 -2.125447e+00
      vertex   1.946396e+01 1.225000e+01 -2.274768e+00
    endloop
  endfacet
  facet normal 5.914486e-01 0.000000e+00 8.063427e-01
    outer loop
      vertex   1.946396e+01 1.225000e+01 -2.274768e+00
      vertex   1.926039e+01 6.833334e+00 -2.125447e+00
      vertex   1.946396e+01 6.833334e+00 -2.274768e+00
    endloop
  endfacet
  facet normal 7.745453e-01 0.000000e+00 6.325185e-01
    outer loop
      vertex   1.946396e+01 1.225000e+01 -2.274768e+00
      vertex   1.946396e+01 6.833334e+00 -2.274768e+00
      vertex   1.962365e+01 1.225000e+01 -2.470315e+00
    endloop
  endfacet
  facet normal 7.745453e-01 0.000000e+00 6.325185e-01
    outer loop
      vertex   1.962365e+01 1.225000e+01 -2.470315e+00
      vertex   1.946396e+01 6.833334e+00 -2.274768e+00
      vertex   1.962365e+01 6.833334e+00 -2.470315e+00
    endloop
  endfacet
  facet normal 9.082730e-01 0.000000e+00 4.183780e-01
    outer loop
      vertex   1.962365e+01 1.225000e+01 -2.470315e+00
      vertex   1.962365e+01 6.833334e+00 -2.470315e+00
      vertex   1.972928e+01 1.225000e+01 -2.699623e+00
    endloop
  endfacet
  facet normal 9.082730e-01 0.000000e+00 4.183780e-01
    outer loop
      vertex   1.972928e+01 1.225000e+01 -2.699623e+00
      vertex   1.962365e+01 6.833334e+00 -2.470315e+00
      vertex   1.972928e+01 6.833334e+00 -2.699623e+00
    endloop
  endfacet
  facet normal 9.841081e-01 0.000000e+00 1.775705e-01
    outer loop
      vertex   1.972928e+01 1.225000e+01 -2.699623e+00
      vertex   1.972928e+01 6.833334e+00 -2.699623e+00
      vertex   1.977411e+01 1.225000e+01 -2.948077e+00
    endloop
  endfacet
  facet normal 9.841081e-01 0.000000e+00 1.775705e-01
    outer loop
      vertex   1.977411e+01 1.225000e+01 -2.948077e+00
      vertex   1.972928e+01 6.833334e+00 -2.699623e+00
      vertex   1.977411e+01 6.833334e+00 -2.948077e+00
    endloop
  endfacet
  facet normal 9.972169e-01 0.000000e+00 -7.455526e-02
    outer loop
      vertex   1.977411e+01 1.225000e+01 -2.948077e+00
      vertex   1.977411e+01 6.833334e+00 -2.948077e+00
      vertex   1.975529e+01 -4.000000e+00 -3.199841e+00
    endloop
  endfacet
  facet normal 9.972169e-01 0.000000e+00 -7.455526e-02
    outer loop
      vertex   1.975529e+01 -4.000000e+00 -3.199841e+00
      vertex   1.977411e+01 6.833334e+00 -2.948077e+00
      vertex   1.977411e+01 1.416667e+00 -2.948077e+00
    endloop
  endfacet
  facet normal 9.972169e-01 0.000000e+00 -7.455526e-02
    outer loop
      vertex   1.975529e+01 -4.000000e+00 -3.199841e+00
      vertex   1.977411e+01 1.416667e+00 -2.948077e+00
      vertex   1.977411e+01 -4.000000e+00 -2.948077e+00
    endloop
  endfacet
  facet normal 9.841081e-01 -0.000000e+00 1.775705e-01
    outer loop
      vertex   1.977411e+01 -4.000000e+00 -2.948077e+00
      vertex   1.977411e+01 1.416667e+00 -2.948077e+00
      vertex   1.972928e+01 -4.000000e+00 -2.699623e+00
    endloop
  endfacet
  facet normal 9.841081e-01 -0.000000e+00 1.775705e-01
    outer loop
      vertex   1.972928e+01 -4.000000e+00 -2.699623e+00
      vertex   1.977411e+01 1.416667e+00 -2.948077e+00
      vertex   1.972928e+01 1.416667e+00 -2.699623e+00
    endloop
  endfacet
  facet normal 9.082730e-01 -0.000000e+00 4.183780e-01
    outer loop
      vertex   1.972928e+01 -4.000000e+00 -2.699623e+00
      vertex   1.972928e+01 1.416667e+00 -2.699623e+00
      vertex   1.962365e+01 -4.000000e+00 -2.470315e+00
    endloop
  endfacet
  facet normal 9.082730e-01 -0.000000e+00 4.183780e-01
    outer loop
      vertex   1.962365e+01 -4.000000e+00 -2.470315e+00
      vertex   1.972928e+01 1.416667e+00 -2.699623e+00
      vertex   1.962365e+01 1.416667e+00 -2.470315e+00
    endloop
  endfacet
  facet normal 7.745453e-01 -0.000000e+00 6.325185e-01
    outer loop
      vertex   1.962365e+01 -4.000000e+00 -2.470315e+00
      vertex   1.962365e+01 1.416667e+00 -2.470315e+00
      vertex   1.946396e+01 -4.000000e+00 -2.274768e+00
    endloop
  endfacet
  facet normal 7.745453e-01 1.555724e-16 6.325185e-01
    outer loop
      vertex   1.946396e+01 -4.000000e+00 -2.274768e+00
      vertex   1.962365e+01 1.416667e+00 -2.470315e+00
      vertex   1.946396e+01 1.416667e+00 -2.274768e+00
    endloop
  endfacet
  facet normal 5.914486e-01 1.983257e-16 8.063427e-01
    outer loop
      vertex   1.946396e+01 -4.000000e+00 -2.274768e+00
      vertex   1.946396e+01 1.416667e+00 -2.274768e+00
      vertex   1.926039e+01 -4.000000e+00 -2.125447e+00
    endloop
  endfacet
  facet normal 5.914486e-01 -1.322171e-16 8.063427e-01
    outer loop
      vertex   1.926039e+01 -4.000000e+00 -2.125447e+00
      vertex   1.946396e+01 1.416667e+00 -2.274768e+00
      vertex   1.926039e+01 1.416667e+00 -2.125447e+00
    endloop
  endfacet
  facet normal 3.706535e-01 -1.522919e-16 9.287712e-01
    outer loop
      vertex   1.926039e+01 -4.000000e+00 -2.125447e+00
      vertex   1.926039e+01 1.416667e+00 -2.125447e+00
      vertex   1.902591e+01 -4.000000e+00 -2.031870e+00
    endloop
  endfacet
  facet normal 3.706535e-01 -7.614596e-17 9.287712e-01
    outer loop
      vertex   1.902591e+01 -4.000000e+00 -2.031870e+00
      vertex   1.926039e+01 1.416667e+00 -2.125447e+00
      vertex   1.902591e+01 1.416667e+00 -2.031870e+00
    endloop
  endfacet
  facet normal 1.262332e-01 -8.132986e-17 9.920006e-01
    outer loop
      vertex   1.902591e+01 -4.000000e+00 -2.031870e+00
      vertex   1.902591e+01 1.416667e+00 -2.031870e+00
      vertex   1.877546e+01 -4.000000e+00 -2.000000e+00
    endloop
  endfacet
  facet normal 1.262332e-01 0.000000e+00 9.920006e-01
    outer loop
      vertex   1.877546e+01 -4.000000e+00 -2.000000e+00
      vertex   1.902591e+01 1.416667e+00 -2.031870e+00
      vertex   1.902591e+01 6.833334e+00 -2.031870e+00
    endloop
  endfacet
  facet normal 9.841081e-01 -0.000000e+00 1.775705e-01
    outer loop
      vertex   1.977411e+01 5.558333e+01 -2.948077e+00
      vertex   1.977411e+01 6.100000e+01 -2.948077e+00
      vertex   1.972928e+01 5.558333e+01 -2.699623e+00
    endloop
  endfacet
  facet normal 9.841081e-01 -0.000000e+00 1.775705e-01
    outer loop
      vertex   1.972928e+01 5.558333e+01 -2.699623e+00
      vertex   1.977411e+01 6.100000e+01 -2.948077e+00
      vertex   1.972928e+01 6.100000e+01 -2.699623e+00
    endloop
  endfacet
  facet normal 9.082730e-01 -0.000000e+00 4.183780e-01
    outer loop
      vertex   1.972928e+01 5.558333e+01 -2.699623e+00
      vertex   1.972928e+01 6.100000e+01 -2.699623e+00
      vertex   1.962365e+01 5.558333e+01 -2.470315e+00
    endloop
  endfacet
  facet normal 9.082730e-01 -0.000000e+00 4.183780e-01
    outer loop
      vertex   1.962365e+01 5.558333e+01 -2.470315e+00
      vertex   1.972928e+01 6.100000e+01 -2.699623e+00
      vertex   1.962365e+01 6.100000e+01 -2.470315e+00
    endloop
  endfacet
  facet normal 7.745453e-01 -0.000000e+00 6.325185e-01
    outer loop
      vertex   1.962365e+01 5.558333e+01 -2.470315e+00
      vertex   1.962365e+01 6.100000e+01 -2.470315e+00
      vertex   1.946396e+01 5.558333e+01 -2.274768e+00
    endloop
  endfacet
  facet normal 7.745453e-01 -1.037149e-16 6.325185e-01
    outer loop
      vertex   1.946396e+01 5.558333e+01 -2.274768e+00
      vertex   1.962365e+01 6.100000e+01 -2.470315e+00
      vertex   1.946396e+01 6.100000e+01 -2.274768e+00
    endloop
  endfacet
  facet normal 5.914486e-01 -1.322171e-16 8.063427e-01
    outer loop
      vertex   1.946396e+01 5.558333e+01 -2.274768e+00
      vertex   1.946396e+01 6.100000e+01 -2.274768e+00
      vertex   1.926039e+01 5.558333e+01 -2.125447e+00
    endloop
  endfacet
  facet normal 5.914486e-01 1.322171e-16 8.063427e-01
    outer loop
      vertex   1.926039e+01 5.558333e+01 -2.125447e+00
      vertex   1.946396e+01 6.100000e+01 -2.274768e+00
      vertex   1.926039e+01 6.100000e+01 -2.125447e+00
    endloop
  endfacet
  facet normal 3.706535e-01 1.522919e-16 9.287712e-01
    outer loop
      vertex   1.926039e+01 5.558333e+01 -2.125447e+00
      vertex   1.926039e+01 6.100000e+01 -2.125447e+00
      vertex   1.902591e+01 5.558333e+01 -2.031870e+00
    endloop
  endfacet
  facet normal 3.706535e-01 1.522919e-16 9.287712e-01
    outer loop
      vertex   1.902591e+01 5.558333e+01 -2.031870e+00
      vertex   1.926039e+01 6.100000e+01 -2.125447e+00
      vertex   1.902591e+01 6.100000e+01 -2.031870e+00
    endloop
  endfacet
  facet normal 1.262332e-01 1.626597e-16 9.920006e-01
    outer loop
      vertex   1.902591e+01 5.558333e+01 -2.031870e+00
      vertex   1.902591e+01 6.100000e+01 -2.031870e+00
      vertex   1.877546e+01 6.100000e+01 -2.000000e+00
    endloop
  endfacet
  facet normal 1.262332e-01 -0.000000e+00 9.920006e-01
    outer loop
      vertex   1.877546e+01 -4.000000e+00 -2.000000e+00
      vertex   1.902591e+01 2.850000e+01 -2.031870e+00
      vertex   1.877546e+01 6.100000e+01 -2.000000e+00
    endloop
  endfacet
  facet normal 1.262332e-01 0.000000e+00 9.920006e-01
    outer loop
      vertex   1.877546e+01 6.100000e+01 -2.000000e+00
      vertex   1.902591e+01 2.850000e+01 -2.031870e+00
      vertex   1.902591e+01 3.391667e+01 -2.031870e+00
    endloop
  endfacet
  facet normal 1.262332e-01 0.000000e+00 9.920006e-01
    outer loop
      vertex   1.877546e+01 6.100000e+01 -2.000000e+00
      vertex   1.902591e+01 3.391667e+01 -2.031870e+00
      vertex   1.902591e+01 3.933333e+01 -2.031870e+00
    endloop
  endfacet
  facet normal 3.706535e-01 0.000000e+00 9.287712e-01
    outer loop
      vertex   1.902591e+01 3.933333e+01 -2.031870e+00
      vertex   1.902591e+01 3.391667e+01 -2.031870e+00
      vertex   1.926039e+01 3.933333e+01 -2.125447e+00
    endloop
  endfacet
  facet normal 3.706535e-01 0.000000e+00 9.287712e-01
    outer loop
      vertex   1.902591e+01 3.933333e+01 -2.031870e+00
      vertex   1.926039e+01 3.933333e+01 -2.125447e+00
      vertex   1.926039e+01 4.475000e+01 -2.125447e+00
    endloop
  endfacet
  facet normal 5.914486e-01 0.000000e+00 8.063427e-01
    outer loop
      vertex   1.926039e+01 4.475000e+01 -2.125447e+00
      vertex   1.926039e+01 3.933333e+01 -2.125447e+00
      vertex   1.946396e+01 4.475000e+01 -2.274768e+00
    endloop
  endfacet
  facet normal 5.914486e-01 0.000000e+00 8.063427e-01
    outer loop
      vertex   1.926039e+01 4.475000e+01 -2.125447e+00
      vertex   1.946396e+01 4.475000e+01 -2.274768e+00
      vertex   1.946396e+01 5.016667e+01 -2.274768e+00
    endloop
  endfacet
  facet normal 7.745453e-01 0.000000e+00 6.325185e-01
    outer loop
      vertex   1.946396e+01 5.016667e+01 -2.274768e+00
      vertex   1.946396e+01 4.475000e+01 -2.274768e+00
      vertex   1.962365e+01 5.016667e+01 -2.470315e+00
    endloop
  endfacet
  facet normal 7.745453e-01 0.000000e+00 6.325185e-01
    outer loop
      vertex   1.946396e+01 5.016667e+01 -2.274768e+00
      vertex   1.962365e+01 5.016667e+01 -2.470315e+00
      vertex   1.962365e+01 5.558333e+01 -2.470315e+00
    endloop
  endfacet
  facet normal 9.082730e-01 0.000000e+00 4.183780e-01
    outer loop
      vertex   1.962365e+01 5.558333e+01 -2.470315e+00
      vertex   1.962365e+01 5.016667e+01 -2.470315e+00
      vertex   1.972928e+01 5.558333e+01 -2.699623e+00
    endloop
  endfacet
  facet normal 9.972169e-01 0.000000e+00 -7.455526e-02
    outer loop
      vertex   1.975529e+01 6.100000e+01 -3.199841e+00
      vertex   1.977411e+01 2.850000e+01 -2.948077e+00
      vertex   1.975529e+01 -4.000000e+00 -3.199841e+00
    endloop
  endfacet
  facet normal 9.972169e-01 -5.708306e-18 -7.455526e-02
    outer loop
      vertex   1.975529e+01 -4.000000e+00 -3.199841e+00
      vertex   1.977411e+01 2.850000e+01 -2.948077e+00
      vertex   1.977411e+01 2.308333e+01 -2.948077e+00
    endloop
  endfacet
  facet normal 9.972169e-01 0.000000e+00 -7.455526e-02
    outer loop
      vertex   1.975529e+01 -4.000000e+00 -3.199841e+00
      vertex   1.977411e+01 2.308333e+01 -2.948077e+00
      vertex   1.977411e+01 1.766667e+01 -2.948077e+00
    endloop
  endfacet
  facet normal 9.841081e-01 -0.000000e+00 1.775705e-01
    outer loop
      vertex   1.977411e+01 1.766667e+01 -2.948077e+00
      vertex   1.977411e+01 2.308333e+01 -2.948077e+00
      vertex   1.972928e+01 1.766667e+01 -2.699623e+00
    endloop
  endfacet
  facet normal 9.841081e-01 0.000000e+00 1.775705e-01
    outer loop
      vertex   1.977411e+01 1.766667e+01 -2.948077e+00
      vertex   1.972928e+01 1.766667e+01 -2.699623e+00
      vertex   1.972928e+01 1.225000e+01 -2.699623e+00
    endloop
  endfacet
  facet normal 9.082730e-01 -0.000000e+00 4.183780e-01
    outer loop
      vertex   1.972928e+01 1.225000e+01 -2.699623e+00
      vertex   1.972928e+01 1.766667e+01 -2.699623e+00
      vertex   1.962365e+01 1.225000e+01 -2.470315e+00
    endloop
  endfacet
  facet normal 9.841081e-01 -0.000000e+00 1.775705e-01
    outer loop
      vertex   1.977411e+01 5.016667e+01 -2.948077e+00
      vertex   1.977411e+01 5.558333e+01 -2.948077e+00
      vertex   1.972928e+01 5.016667e+01 -2.699623e+00
    endloop
  endfacet
  facet normal 9.841081e-01 -0.000000e+00 1.775705e-01
    outer loop
      vertex   1.972928e+01 5.016667e+01 -2.699623e+00
      vertex   1.977411e+01 5.558333e+01 -2.948077e+00
      vertex   1.972928e+01 5.558333e+01 -2.699623e+00
    endloop
  endfacet
  facet normal 9.082730e-01 -0.000000e+00 4.183780e-01
    outer loop
      vertex   1.972928e+01 5.016667e+01 -2.699623e+00
      vertex   1.972928e+01 5.558333e+01 -2.699623e+00
      vertex   1.962365e+01 5.016667e+01 -2.470315e+00
    endloop
  endfacet
  facet normal 9.972169e-01 0.000000e+00 -7.455526e-02
    outer loop
      vertex   1.977411e+01 4.475000e+01 -2.948077e+00
      vertex   1.977411e+01 3.933333e+01 -2.948077e+00
      vertex   1.975529e+01 6.100000e+01 -3.199841e+00
    endloop
  endfacet
  facet normal 9.972169e-01 0.000000e+00 -7.455526e-02
    outer loop
      vertex   1.975529e+01 6.100000e+01 -3.199841e+00
      vertex   1.977411e+01 3.933333e+01 -2.948077e+00
      vertex   1.977411e+01 3.391667e+01 -2.948077e+00
    endloop
  endfacet
  facet normal 9.972169e-01 0.000000e+00 -7.455526e-02
    outer loop
      vertex   1.975529e+01 6.100000e+01 -3.199841e+00
      vertex   1.977411e+01 3.391667e+01 -2.948077e+00
      vertex   1.977411e+01 2.850000e+01 -2.948077e+00
    endloop
  endfacet
  facet normal 9.841081e-01 -0.000000e+00 1.775705e-01
    outer loop
      vertex   1.977411e+01 2.850000e+01 -2.948077e+00
      vertex   1.977411e+01 3.391667e+01 -2.948077e+00
      vertex   1.972928e+01 2.850000e+01 -2.699623e+00
    endloop
  endfacet
  facet normal 9.841081e-01 0.000000e+00 1.775705e-01
    outer loop
      vertex   1.977411e+01 2.850000e+01 -2.948077e+00
      vertex   1.972928e+01 2.850000e+01 -2.699623e+00
      vertex   1.972928e+01 2.308333e+01 -2.699623e+00
    endloop
  endfacet
  facet normal 9.082730e-01 -0.000000e+00 4.183780e-01
    outer loop
      vertex   1.972928e+01 2.308333e+01 -2.699623e+00
      vertex   1.972928e+01 2.850000e+01 -2.699623e+00
      vertex   1.962365e+01 2.308333e+01 -2.470315e+00
    endloop
  endfacet
  facet normal 9.082730e-01 0.000000e+00 4.183780e-01
    outer loop
      vertex   1.972928e+01 2.308333e+01 -2.699623e+00
      vertex   1.962365e+01 2.308333e+01 -2.470315e+00
      vertex   1.962365e+01 1.766667e+01 -2.470315e+00
    endloop
  endfacet
  facet normal 7.745453e-01 -0.000000e+00 6.325185e-01
    outer loop
      vertex   1.962365e+01 1.766667e+01 -2.470315e+00
      vertex   1.962365e+01 2.308333e+01 -2.470315e+00
      vertex   1.946396e+01 1.766667e+01 -2.274768e+00
    endloop
  endfacet
  facet normal 7.745453e-01 0.000000e+00 6.325185e-01
    outer loop
      vertex   1.962365e+01 1.766667e+01 -2.470315e+00
      vertex   1.946396e+01 1.766667e+01 -2.274768e+00
      vertex   1.946396e+01 1.225000e+01 -2.274768e+00
    endloop
  endfacet
  facet normal 5.914486e-01 -0.000000e+00 8.063427e-01
    outer loop
      vertex   1.946396e+01 1.225000e+01 -2.274768e+00
      vertex   1.946396e+01 1.766667e+01 -2.274768e+00
      vertex   1.926039e+01 1.225000e+01 -2.125447e+00
    endloop
  endfacet
  facet normal 9.841081e-01 0.000000e+00 1.775705e-01
    outer loop
      vertex   1.977411e+01 4.475000e+01 -2.948077e+00
      vertex   1.972928e+01 3.933333e+01 -2.699623e+00
      vertex   1.977411e+01 3.933333e+01 -2.948077e+00
    endloop
  endfacet
  facet normal 9.841081e-01 0.000000e+00 1.775705e-01
    outer loop
      vertex   1.977411e+01 3.933333e+01 -2.948077e+00
      vertex   1.972928e+01 3.933333e+01 -2.699623e+00
      vertex   1.972928e+01 3.391667e+01 -2.699623e+00
    endloop
  endfacet
  facet normal 9.841081e-01 0.000000e+00 1.775705e-01
    outer loop
      vertex   1.977411e+01 3.933333e+01 -2.948077e+00
      vertex   1.972928e+01 3.391667e+01 -2.699623e+00
      vertex   1.977411e+01 3.391667e+01 -2.948077e+00
    endloop
  endfacet
  facet normal 9.841081e-01 0.000000e+00 1.775705e-01
    outer loop
      vertex   1.977411e+01 3.391667e+01 -2.948077e+00
      vertex   1.972928e+01 3.391667e+01 -2.699623e+00
      vertex   1.972928e+01 2.850000e+01 -2.699623e+00
    endloop
  endfacet
  facet normal 9.972169e-01 0.000000e+00 -7.455526e-02
    outer loop
      vertex   1.977411e+01 1.225000e+01 -2.948077e+00
      vertex   1.975529e+01 -4.000000e+00 -3.199841e+00
      vertex   1.977411e+01 1.766667e+01 -2.948077e+00
    endloop
  endfacet
  facet normal 9.841081e-01 -0.000000e+00 1.775705e-01
    outer loop
      vertex   1.972928e+01 1.766667e+01 -2.699623e+00
      vertex   1.977411e+01 2.308333e+01 -2.948077e+00
      vertex   1.972928e+01 2.308333e+01 -2.699623e+00
    endloop
  endfacet
  facet normal 9.841081e-01 1.522215e-17 1.775705e-01
    outer loop
      vertex   1.972928e+01 2.308333e+01 -2.699623e+00
      vertex   1.977411e+01 2.308333e+01 -2.948077e+00
      vertex   1.977411e+01 2.850000e+01 -2.948077e+00
    endloop
  endfacet
  facet normal 9.841081e-01 0.000000e+00 1.775705e-01
    outer loop
      vertex   1.972928e+01 1.225000e+01 -2.699623e+00
      vertex   1.977411e+01 1.225000e+01 -2.948077e+00
      vertex   1.977411e+01 1.766667e+01 -2.948077e+00
    endloop
  endfacet
  facet normal 9.841081e-01 0.000000e+00 1.775705e-01
    outer loop
      vertex   1.972928e+01 1.416667e+00 -2.699623e+00
      vertex   1.977411e+01 1.416667e+00 -2.948077e+00
      vertex   1.977411e+01 6.833334e+00 -2.948077e+00
    endloop
  endfacet
  facet normal 9.841081e-01 -0.000000e+00 1.775705e-01
    outer loop
      vertex   1.972928e+01 1.416667e+00 -2.699623e+00
      vertex   1.977411e+01 6.833334e+00 -2.948077e+00
      vertex   1.972928e+01 6.833334e+00 -2.699623e+00
    endloop
  endfacet
  facet normal 9.841081e-01 0.000000e+00 1.775705e-01
    outer loop
      vertex   1.977411e+01 5.016667e+01 -2.948077e+00
      vertex   1.972928e+01 5.016667e+01 -2.699623e+00
      vertex   1.972928e+01 4.475000e+01 -2.699623e+00
    endloop
  endfacet
  facet normal 9.082730e-01 -0.000000e+00 4.183780e-01
    outer loop
      vertex   1.972928e+01 4.475000e+01 -2.699623e+00
      vertex   1.972928e+01 5.016667e+01 -2.699623e+00
      vertex   1.962365e+01 4.475000e+01 -2.470315e+00
    endloop
  endfacet
  facet normal 9.082730e-01 0.000000e+00 4.183780e-01
    outer loop
      vertex   1.972928e+01 4.475000e+01 -2.699623e+00
      vertex   1.962365e+01 4.475000e+01 -2.470315e+00
      vertex   1.962365e+01 3.933333e+01 -2.470315e+00
    endloop
  endfacet
  facet normal 7.745453e-01 -0.000000e+00 6.325185e-01
    outer loop
      vertex   1.962365e+01 3.933333e+01 -2.470315e+00
      vertex   1.962365e+01 4.475000e+01 -2.470315e+00
      vertex   1.946396e+01 3.933333e+01 -2.274768e+00
    endloop
  endfacet
  facet normal 7.745453e-01 0.000000e+00 6.325185e-01
    outer loop
      vertex   1.962365e+01 3.933333e+01 -2.470315e+00
      vertex   1.946396e+01 3.933333e+01 -2.274768e+00
      vertex   1.946396e+01 3.391667e+01 -2.274768e+00
    endloop
  endfacet
  facet normal 5.914486e-01 -0.000000e+00 8.063427e-01
    outer loop
      vertex   1.946396e+01 3.391667e+01 -2.274768e+00
      vertex   1.946396e+01 3.933333e+01 -2.274768e+00
      vertex   1.926039e+01 3.391667e+01 -2.125447e+00
    endloop
  endfacet
  facet normal 5.914486e-01 0.000000e+00 8.063427e-01
    outer loop
      vertex   1.946396e+01 3.391667e+01 -2.274768e+00
      vertex   1.926039e+01 3.391667e+01 -2.125447e+00
      vertex   1.926039e+01 2.850000e+01 -2.125447e+00
    endloop
  endfacet
  facet normal 3.706535e-01 -0.000000e+00 9.287712e-01
    outer loop
      vertex   1.926039e+01 2.850000e+01 -2.125447e+00
      vertex   1.926039e+01 3.391667e+01 -2.125447e+00
      vertex   1.902591e+01 2.850000e+01 -2.031870e+00
    endloop
  endfacet
  facet normal 3.706535e-01 0.000000e+00 9.287712e-01
    outer loop
      vertex   1.926039e+01 2.850000e+01 -2.125447e+00
      vertex   1.902591e+01 2.850000e+01 -2.031870e+00
      vertex   1.902591e+01 2.308333e+01 -2.031870e+00
    endloop
  endfacet
  facet normal 1.262332e-01 -0.000000e+00 9.920006e-01
    outer loop
      vertex   1.902591e+01 2.308333e+01 -2.031870e+00
      vertex   1.902591e+01 2.850000e+01 -2.031870e+00
      vertex   1.877546e+01 -4.000000e+00 -2.000000e+00
    endloop
  endfacet
  facet normal 9.082730e-01 -0.000000e+00 4.183780e-01
    outer loop
      vertex   1.962365e+01 4.475000e+01 -2.470315e+00
      vertex   1.972928e+01 5.016667e+01 -2.699623e+00
      vertex   1.962365e+01 5.016667e+01 -2.470315e+00
    endloop
  endfacet
  facet normal 9.082730e-01 0.000000e+00 4.183780e-01
    outer loop
      vertex   1.972928e+01 3.933333e+01 -2.699623e+00
      vertex   1.962365e+01 3.391667e+01 -2.470315e+00
      vertex   1.972928e+01 3.391667e+01 -2.699623e+00
    endloop
  endfacet
  facet normal 9.082730e-01 0.000000e+00 4.183780e-01
    outer loop
      vertex   1.972928e+01 3.391667e+01 -2.699623e+00
      vertex   1.962365e+01 3.391667e+01 -2.470315e+00
      vertex   1.962365e+01 2.850000e+01 -2.470315e+00
    endloop
  endfacet
  facet normal 9.082730e-01 0.000000e+00 4.183780e-01
    outer loop
      vertex   1.972928e+01 3.391667e+01 -2.699623e+00
      vertex   1.962365e+01 2.850000e+01 -2.470315e+00
      vertex   1.972928e+01 2.850000e+01 -2.699623e+00
    endloop
  endfacet
  facet normal 9.082730e-01 0.000000e+00 4.183780e-01
    outer loop
      vertex   1.972928e+01 2.850000e+01 -2.699623e+00
      vertex   1.962365e+01 2.850000e+01 -2.470315e+00
      vertex   1.962365e+01 2.308333e+01 -2.470315e+00
    endloop
  endfacet
  facet normal 9.082730e-01 -0.000000e+00 4.183780e-01
    outer loop
      vertex   1.962365e+01 1.225000e+01 -2.470315e+00
      vertex   1.972928e+01 1.766667e+01 -2.699623e+00
      vertex   1.962365e+01 1.766667e+01 -2.470315e+00
    endloop
  endfacet
  facet normal 9.082730e-01 0.000000e+00 4.183780e-01
    outer loop
      vertex   1.962365e+01 1.766667e+01 -2.470315e+00
      vertex   1.972928e+01 1.766667e+01 -2.699623e+00
      vertex   1.972928e+01 2.308333e+01 -2.699623e+00
    endloop
  endfacet
  facet normal 9.082730e-01 0.000000e+00 4.183780e-01
    outer loop
      vertex   1.962365e+01 1.416667e+00 -2.470315e+00
      vertex   1.972928e+01 1.416667e+00 -2.699623e+00
      vertex   1.972928e+01 6.833334e+00 -2.699623e+00
    endloop
  endfacet
  facet normal 9.082730e-01 -0.000000e+00 4.183780e-01
    outer loop
      vertex   1.962365e+01 1.416667e+00 -2.470315e+00
      vertex   1.972928e+01 6.833334e+00 -2.699623e+00
      vertex   1.962365e+01 6.833334e+00 -2.470315e+00
    endloop
  endfacet
  facet normal 7.745453e-01 -0.000000e+00 6.325185e-01
    outer loop
      vertex   1.946396e+01 5.016667e+01 -2.274768e+00
      vertex   1.962365e+01 5.558333e+01 -2.470315e+00
      vertex   1.946396e+01 5.558333e+01 -2.274768e+00
    endloop
  endfacet
  facet normal 7.745453e-01 -0.000000e+00 6.325185e-01
    outer loop
      vertex   1.946396e+01 3.933333e+01 -2.274768e+00
      vertex   1.962365e+01 4.475000e+01 -2.470315e+00
      vertex   1.946396e+01 4.475000e+01 -2.274768e+00
    endloop
  endfacet
  facet normal 7.745453e-01 0.000000e+00 6.325185e-01
    outer loop
      vertex   1.946396e+01 4.475000e+01 -2.274768e+00
      vertex   1.962365e+01 4.475000e+01 -2.470315e+00
      vertex   1.962365e+01 5.016667e+01 -2.470315e+00
    endloop
  endfacet
  facet normal 7.745453e-01 0.000000e+00 6.325185e-01
    outer loop
      vertex   1.962365e+01 3.391667e+01 -2.470315e+00
      vertex   1.946396e+01 2.850000e+01 -2.274768e+00
      vertex   1.962365e+01 2.850000e+01 -2.470315e+00
    endloop
  endfacet
  facet normal 7.745453e-01 0.000000e+00 6.325185e-01
    outer loop
      vertex   1.962365e+01 2.850000e+01 -2.470315e+00
      vertex   1.946396e+01 2.850000e+01 -2.274768e+00
      vertex   1.946396e+01 2.308333e+01 -2.274768e+00
    endloop
  endfacet
  facet normal 7.745453e-01 0.000000e+00 6.325185e-01
    outer loop
      vertex   1.962365e+01 2.850000e+01 -2.470315e+00
      vertex   1.946396e+01 2.308333e+01 -2.274768e+00
      vertex   1.962365e+01 2.308333e+01 -2.470315e+00
    endloop
  endfacet
  facet normal 7.745453e-01 0.000000e+00 6.325185e-01
    outer loop
      vertex   1.962365e+01 2.308333e+01 -2.470315e+00
      vertex   1.946396e+01 2.308333e+01 -2.274768e+00
      vertex   1.946396e+01 1.766667e+01 -2.274768e+00
    endloop
  endfacet
  facet normal 7.745453e-01 0.000000e+00 6.325185e-01
    outer loop
      vertex   1.946396e+01 1.225000e+01 -2.274768e+00
      vertex   1.962365e+01 1.225000e+01 -2.470315e+00
      vertex   1.962365e+01 1.766667e+01 -2.470315e+00
    endloop
  endfacet
  facet normal 7.745453e-01 0.000000e+00 6.325185e-01
    outer loop
      vertex   1.946396e+01 1.416667e+00 -2.274768e+00
      vertex   1.962365e+01 1.416667e+00 -2.470315e+00
      vertex   1.962365e+01 6.833334e+00 -2.470315e+00
    endloop
  endfacet
  facet normal 7.745453e-01 -0.000000e+00 6.325185e-01
    outer loop
      vertex   1.946396e+01 1.416667e+00 -2.274768e+00
      vertex   1.962365e+01 6.833334e+00 -2.470315e+00
      vertex   1.946396e+01 6.833334e+00 -2.274768e+00
    endloop
  endfacet
  facet normal 5.914486e-01 -0.000000e+00 8.063427e-01
    outer loop
      vertex   1.946396e+01 5.016667e+01 -2.274768e+00
      vertex   1.946396e+01 5.558333e+01 -2.274768e+00
      vertex   1.926039e+01 5.016667e+01 -2.125447e+00
    endloop
  endfacet
  facet normal 5.914486e-01 -0.000000e+00 8.063427e-01
    outer loop
      vertex   1.926039e+01 5.016667e+01 -2.125447e+00
      vertex   1.946396e+01 5.558333e+01 -2.274768e+00
      vertex   1.926039e+01 5.558333e+01 -2.125447e+00
    endloop
  endfacet
  facet normal 3.706535e-01 -0.000000e+00 9.287712e-01
    outer loop
      vertex   1.926039e+01 5.016667e+01 -2.125447e+00
      vertex   1.926039e+01 5.558333e+01 -2.125447e+00
      vertex   1.902591e+01 5.016667e+01 -2.031870e+00
    endloop
  endfacet
  facet normal 3.706535e-01 -0.000000e+00 9.287712e-01
    outer loop
      vertex   1.902591e+01 5.016667e+01 -2.031870e+00
      vertex   1.926039e+01 5.558333e+01 -2.125447e+00
      vertex   1.902591e+01 5.558333e+01 -2.031870e+00
    endloop
  endfacet
  facet normal 1.262332e-01 -0.000000e+00 9.920006e-01
    outer loop
      vertex   1.902591e+01 5.016667e+01 -2.031870e+00
      vertex   1.902591e+01 5.558333e+01 -2.031870e+00
      vertex   1.877546e+01 6.100000e+01 -2.000000e+00
    endloop
  endfacet
  facet normal 5.914486e-01 -0.000000e+00 8.063427e-01
    outer loop
      vertex   1.926039e+01 3.391667e+01 -2.125447e+00
      vertex   1.946396e+01 3.933333e+01 -2.274768e+00
      vertex   1.926039e+01 3.933333e+01 -2.125447e+00
    endloop
  endfacet
  facet normal 5.914486e-01 0.000000e+00 8.063427e-01
    outer loop
      vertex   1.926039e+01 3.933333e+01 -2.125447e+00
      vertex   1.946396e+01 3.933333e+01 -2.274768e+00
      vertex   1.946396e+01 4.475000e+01 -2.274768e+00
    endloop
  endfacet
  facet normal 5.914486e-01 0.000000e+00 8.063427e-01
    outer loop
      vertex   1.946396e+01 2.850000e+01 -2.274768e+00
      vertex   1.926039e+01 2.308333e+01 -2.125447e+00
      vertex   1.946396e+01 2.308333e+01 -2.274768e+00
    endloop
  endfacet
  facet normal 5.914486e-01 0.000000e+00 8.063427e-01
    outer loop
      vertex   1.946396e+01 2.308333e+01 -2.274768e+00
      vertex   1.926039e+01 2.308333e+01 -2.125447e+00
      vertex   1.926039e+01 1.766667e+01 -2.125447e+00
    endloop
  endfacet
  facet normal 5.914486e-01 0.000000e+00 8.063427e-01
    outer loop
      vertex   1.946396e+01 2.308333e+01 -2.274768e+00
      vertex   1.926039e+01 1.766667e+01 -2.125447e+00
      vertex   1.946396e+01 1.766667e+01 -2.274768e+00
    endloop
  endfacet
  facet normal 5.914486e-01 0.000000e+00 8.063427e-01
    outer loop
      vertex   1.946396e+01 1.766667e+01 -2.274768e+00
      vertex   1.926039e+01 1.766667e+01 -2.125447e+00
      vertex   1.926039e+01 1.225000e+01 -2.125447e+00
    endloop
  endfacet
  facet normal 5.914486e-01 0.000000e+00 8.063427e-01
    outer loop
      vertex   1.926039e+01 1.416667e+00 -2.125447e+00
      vertex   1.946396e+01 1.416667e+00 -2.274768e+00
      vertex   1.946396e+01 6.833334e+00 -2.274768e+00
    endloop
  endfacet
  facet normal 5.914486e-01 -0.000000e+00 8.063427e-01
    outer loop
      vertex   1.926039e+01 1.416667e+00 -2.125447e+00
      vertex   1.946396e+01 6.833334e+00 -2.274768e+00
      vertex   1.926039e+01 6.833334e+00 -2.125447e+00
    endloop
  endfacet
  facet normal 5.914486e-01 0.000000e+00 8.063427e-01
    outer loop
      vertex   1.946396e+01 5.016667e+01 -2.274768e+00
      vertex   1.926039e+01 5.016667e+01 -2.125447e+00
      vertex   1.926039e+01 4.475000e+01 -2.125447e+00
    endloop
  endfacet
  facet normal 3.706535e-01 -0.000000e+00 9.287712e-01
    outer loop
      vertex   1.926039e+01 4.475000e+01 -2.125447e+00
      vertex   1.926039e+01 5.016667e+01 -2.125447e+00
      vertex   1.902591e+01 4.475000e+01 -2.031870e+00
    endloop
  endfacet
  facet normal 3.706535e-01 0.000000e+00 9.287712e-01
    outer loop
      vertex   1.926039e+01 4.475000e+01 -2.125447e+00
      vertex   1.902591e+01 4.475000e+01 -2.031870e+00
      vertex   1.902591e+01 3.933333e+01 -2.031870e+00
    endloop
  endfacet
  facet normal 1.262332e-01 -0.000000e+00 9.920006e-01
    outer loop
      vertex   1.902591e+01 3.933333e+01 -2.031870e+00
      vertex   1.902591e+01 4.475000e+01 -2.031870e+00
      vertex   1.877546e+01 6.100000e+01 -2.000000e+00
    endloop
  endfacet
  facet normal 3.706535e-01 -0.000000e+00 9.287712e-01
    outer loop
      vertex   1.902591e+01 4.475000e+01 -2.031870e+00
      vertex   1.926039e+01 5.016667e+01 -2.125447e+00
      vertex   1.902591e+01 5.016667e+01 -2.031870e+00
    endloop
  endfacet
  facet normal 3.706535e-01 -0.000000e+00 9.287712e-01
    outer loop
      vertex   1.902591e+01 2.850000e+01 -2.031870e+00
      vertex   1.926039e+01 3.391667e+01 -2.125447e+00
      vertex   1.902591e+01 3.391667e+01 -2.031870e+00
    endloop
  endfacet
  facet normal 3.706535e-01 0.000000e+00 9.287712e-01
    outer loop
      vertex   1.902591e+01 3.391667e+01 -2.031870e+00
      vertex   1.926039e+01 3.391667e+01 -2.125447e+00
      vertex   1.926039e+01 3.933333e+01 -2.125447e+00
    endloop
  endfacet
  facet normal 3.706535e-01 0.000000e+00 9.287712e-01
    outer loop
      vertex   1.902591e+01 1.225000e+01 -2.031870e+00
      vertex   1.926039e+01 1.225000e+01 -2.125447e+00
      vertex   1.926039e+01 1.766667e+01 -2.125447e+00
    endloop
  endfacet
  facet normal 3.706535e-01 -0.000000e+00 9.287712e-01
    outer loop
      vertex   1.902591e+01 1.225000e+01 -2.031870e+00
      vertex   1.926039e+01 1.766667e+01 -2.125447e+00
      vertex   1.902591e+01 1.766667e+01 -2.031870e+00
    endloop
  endfacet
  facet normal 3.706535e-01 0.000000e+00 9.287712e-01
    outer loop
      vertex   1.902591e+01 1.766667e+01 -2.031870e+00
      vertex   1.926039e+01 1.766667e+01 -2.125447e+00
      vertex   1.926039e+01 2.308333e+01 -2.125447e+00
    endloop
  endfacet
  facet normal 3.706535e-01 0.000000e+00 9.287712e-01
    outer loop
      vertex   1.902591e+01 1.416667e+00 -2.031870e+00
      vertex   1.926039e+01 1.416667e+00 -2.125447e+00
      vertex   1.926039e+01 6.833334e+00 -2.125447e+00
    endloop
  endfacet
  facet normal 3.706535e-01 -0.000000e+00 9.287712e-01
    outer loop
      vertex   1.902591e+01 1.416667e+00 -2.031870e+00
      vertex   1.926039e+01 6.833334e+00 -2.125447e+00
      vertex   1.902591e+01 6.833334e+00 -2.031870e+00
    endloop
  endfacet
  facet normal 1.262332e-01 0.000000e+00 9.920006e-01
    outer loop
      vertex   1.877546e+01 6.100000e+01 -2.000000e+00
      vertex   1.902591e+01 4.475000e+01 -2.031870e+00
      vertex   1.902591e+01 5.016667e+01 -2.031870e+00
    endloop
  endfacet
  facet normal -0.000000e+00 -1.000000e+00 0.000000e+00
    outer loop
      vertex   1.977411e+01 -4.000000e+00 -2.948077e+00
      vertex   1.972928e+01 -4.000000e+00 -2.699623e+00
      vertex   1.975529e+01 -4.000000e+00 -3.199841e+00
    endloop
  endfacet
  facet normal 0.000000e+00 -1.000000e+00 0.000000e+00
    outer loop
      vertex   1.975529e+01 -4.000000e+00 -3.199841e+00
      vertex   1.972928e+01 -4.000000e+00 -2.699623e+00
      vertex   1.962365e+01 -4.000000e+00 -2.470315e+00
    endloop
  endfacet
  facet normal 0.000000e+00 -1.000000e+00 0.000000e+00
    outer loop
      vertex   1.975529e+01 -4.000000e+00 -3.199841e+00
      vertex   1.962365e+01 -4.000000e+00 -2.470315e+00
      vertex   1.946396e+01 -4.000000e+00 -2.274768e+00
    endloop
  endfacet
  facet normal -0.000000e+00 -1.000000e+00 -0.000000e+00
    outer loop
      vertex   1.946396e+01 -4.000000e+00 -2.274768e+00
      vertex   1.926039e+01 -4.000000e+00 -2.125447e+00
      vertex   1.975529e+01 -4.000000e+00 -3.199841e+00
    endloop
  endfacet
  facet normal 0.000000e+00 -1.000000e+00 0.000000e+00
    outer loop
      vertex   1.975529e+01 -4.000000e+00 -3.199841e+00
      vertex   1.926039e+01 -4.000000e+00 -2.125447e+00
      vertex   1.902591e+01 -4.000000e+00 -2.031870e+00
    endloop
  endfacet
  facet normal 0.000000e+00 -1.000000e+00 0.000000e+00
    outer loop
      vertex   1.975529e+01 -4.000000e+00 -3.199841e+00
      vertex   1.902591e+01 -4.000000e+00 -2.031870e+00
      vertex   1.877546e+01 -4.000000e+00 -2.000000e+00
    endloop
  endfacet
  facet normal 0.000000e+00 -1.000000e+00 0.000000e+00
    outer loop
      vertex   6.207103e+00 -4.000000e+00 -2.000000e+00
      vertex   9.000000e+00 -4.000000e+00 -2.150000e+01
      vertex   1.877546e+01 -4.000000e+00 -2.000000e+00
    endloop
  endfacet
  facet normal 0.000000e+00 -1.000000e+00 0.000000e+00
    outer loop
      vertex   1.877546e+01 -4.000000e+00 -2.000000e+00
      vertex   9.000000e+00 -4.000000e+00 -2.150000e+01
      vertex   1.602288e+01 -4.000000e+00 -2.150000e+01
    endloop
  endfacet
  facet normal 0.000000e+00 -1.000000e+00 -0.000000e+00
    outer loop
      vertex   1.877546e+01 -4.000000e+00 -2.000000e+00
      vertex   1.602288e+01 -4.000000e+00 -2.150000e+01
      vertex   1.975529e+01 -4.000000e+00 -3.199841e+00
    endloop
  endfacet
  facet normal 0.000000e+00 -1.000000e+00 0.000000e+00
    outer loop
      vertex   9.000000e+00 -4.000000e+00 -2.150000e+01
      vertex   6.207103e+00 -4.000000e+00 -2.000000e+00
      vertex   5.227699e+00 -4.000000e+00 -3.201912e+00
    endloop
  endfacet
  facet normal 0.000000e+00 -1.000000e+00 0.000000e+00
    outer loop
      vertex   5.227699e+00 -4.000000e+00 -3.201912e+00
      vertex   6.207103e+00 -4.000000e+00 -2.000000e+00
      vertex   5.956363e+00 -4.000000e+00 -2.031945e+00
    endloop
  endfacet
  facet normal 0.000000e+00 -1.000000e+00 0.000000e+00
    outer loop
      vertex   5.227699e+00 -4.000000e+00 -3.201912e+00
      vertex   5.956363e+00 -4.000000e+00 -2.031945e+00
      vertex   5.721644e+00 -4.000000e+00 -2.125740e+00
    endloop
  endfacet
  facet normal 0.000000e+00 -1.000000e+00 0.000000e+00
    outer loop
      vertex   5.721644e+00 -4.000000e+00 -2.125740e+00
      vertex   5.517941e+00 -4.000000e+00 -2.275392e+00
      vertex   5.227699e+00 -4.000000e+00 -3.201912e+00
    endloop
  endfacet
  facet normal 0.000000e+00 -1.000000e+00 0.000000e+00
    outer loop
      vertex   5.227699e+00 -4.000000e+00 -3.201912e+00
      vertex   5.517941e+00 -4.000000e+00 -2.275392e+00
      vertex   5.358269e+00 -4.000000e+00 -2.471340e+00
    endloop
  endfacet
  facet normal 0.000000e+00 -1.000000e+00 0.000000e+00
    outer loop
      vertex   5.227699e+00 -4.000000e+00 -3.201912e+00
      vertex   5.358269e+00 -4.000000e+00 -2.471340e+00
      vertex   5.252829e+00 -4.000000e+00 -2.701064e+00
    endloop
  endfacet
  facet normal 0.000000e+00 -1.000000e+00 0.000000e+00
    outer loop
      vertex   5.252829e+00 -4.000000e+00 -2.701064e+00
      vertex   5.208359e+00 -4.000000e+00 -2.949887e+00
      vertex   5.227699e+00 -4.000000e+00 -3.201912e+00
    endloop
  endfacet
  facet normal 0.000000e+00 0.000000e+00 1.000000e+00
    outer loop
      vertex   1.877546e+01 6.100000e+01 -2.000000e+00
      vertex   6.207103e+00 6.100000e+01 -2.000000e+00
      vertex   1.877546e+01 -4.000000e+00 -2.000000e+00
    endloop
  endfacet
  facet normal 0.000000e+00 0.000000e+00 1.000000e+00
    outer loop
      vertex   1.877546e+01 -4.000000e+00 -2.000000e+00
      vertex   6.207103e+00 6.100000e+01 -2.000000e+00
      vertex   6.207103e+00 -4.000000e+00 -2.000000e+00
    endloop
  endfacet
  facet normal -1.263830e-01 0.000000e+00 9.919815e-01
    outer loop
      vertex   5.956363e+00 6.100000e+01 -2.031945e+00
      vertex   5.956363e+00 5.558333e+01 -2.031945e+00
      vertex   6.207103e+00 6.100000e+01 -2.000000e+00
    endloop
  endfacet
  facet normal -1.263830e-01 0.000000e+00 9.919815e-01
    outer loop
      vertex   6.207103e+00 6.100000e+01 -2.000000e+00
      vertex   5.956363e+00 5.558333e+01 -2.031945e+00
      vertex   5.956363e+00 5.016667e+01 -2.031945e+00
    endloop
  endfacet
  facet normal -1.263830e-01 0.000000e+00 9.919815e-01
    outer loop
      vertex   6.207103e+00 6.100000e+01 -2.000000e+00
      vertex   5.956363e+00 5.016667e+01 -2.031945e+00
      vertex   5.956363e+00 4.475000e+01 -2.031945e+00
    endloop
  endfacet
  facet normal -3.710743e-01 0.000000e+00 9.286032e-01
    outer loop
      vertex   5.956363e+00 4.475000e+01 -2.031945e+00
      vertex   5.956363e+00 5.016667e+01 -2.031945e+00
      vertex   5.721644e+00 4.475000e+01 -2.125740e+00
    endloop
  endfacet
  facet normal -3.710743e-01 0.000000e+00 9.286032e-01
    outer loop
      vertex   5.956363e+00 4.475000e+01 -2.031945e+00
      vertex   5.721644e+00 4.475000e+01 -2.125740e+00
      vertex   5.721644e+00 3.933333e+01 -2.125740e+00
    endloop
  endfacet
  facet normal -5.920574e-01 0.000000e+00 8.058958e-01
    outer loop
      vertex   5.721644e+00 3.933333e+01 -2.125740e+00
      vertex   5.721644e+00 4.475000e+01 -2.125740e+00
      vertex   5.517941e+00 3.933333e+01 -2.275392e+00
    endloop
  endfacet
  facet normal -5.920574e-01 0.000000e+00 8.058958e-01
    outer loop
      vertex   5.721644e+00 3.933333e+01 -2.125740e+00
      vertex   5.517941e+00 3.933333e+01 -2.275392e+00
      vertex   5.517941e+00 3.391667e+01 -2.275392e+00
    endloop
  endfacet
  facet normal -7.752136e-01 0.000000e+00 6.316993e-01
    outer loop
      vertex   5.517941e+00 3.391667e+01 -2.275392e+00
      vertex   5.517941e+00 3.933333e+01 -2.275392e+00
      vertex   5.358269e+00 3.391667e+01 -2.471340e+00
    endloop
  endfacet
  facet normal -7.752136e-01 0.000000e+00 6.316993e-01
    outer loop
      vertex   5.517941e+00 3.391667e+01 -2.275392e+00
      vertex   5.358269e+00 3.391667e+01 -2.471340e+00
      vertex   5.358269e+00 2.850000e+01 -2.471340e+00
    endloop
  endfacet
  facet normal -9.088409e-01 0.000000e+00 4.171430e-01
    outer loop
      vertex   5.358269e+00 2.850000e+01 -2.471340e+00
      vertex   5.358269e+00 3.391667e+01 -2.471340e+00
      vertex   5.252829e+00 2.850000e+01 -2.701064e+00
    endloop
  endfacet
  facet normal -9.088409e-01 0.000000e+00 4.171430e-01
    outer loop
      vertex   5.358269e+00 2.850000e+01 -2.471340e+00
      vertex   5.252829e+00 2.850000e+01 -2.701064e+00
      vertex   5.252829e+00 2.308333e+01 -2.701064e+00
    endloop
  endfacet
  facet normal -9.844017e-01 0.000000e+00 1.759353e-01
    outer loop
      vertex   5.252829e+00 2.308333e+01 -2.701064e+00
      vertex   5.252829e+00 2.850000e+01 -2.701064e+00
      vertex   5.208359e+00 2.308333e+01 -2.949887e+00
    endloop
  endfacet
  facet normal -9.844017e-01 0.000000e+00 1.759353e-01
    outer loop
      vertex   5.252829e+00 2.308333e+01 -2.701064e+00
      vertex   5.208359e+00 2.308333e+01 -2.949887e+00
      vertex   5.208359e+00 1.766667e+01 -2.949887e+00
    endloop
  endfacet
  facet normal -9.970686e-01 0.000000e+00 -7.651313e-02
    outer loop
      vertex   5.208359e+00 1.766667e+01 -2.949887e+00
      vertex   5.208359e+00 2.308333e+01 -2.949887e+00
      vertex   5.227699e+00 -4.000000e+00 -3.201912e+00
    endloop
  endfacet
  facet normal -9.970686e-01 -0.000000e+00 -7.651313e-02
    outer loop
      vertex   5.208359e+00 1.766667e+01 -2.949887e+00
      vertex   5.227699e+00 -4.000000e+00 -3.201912e+00
      vertex   5.208359e+00 1.225000e+01 -2.949887e+00
    endloop
  endfacet
  facet normal -9.970686e-01 -0.000000e+00 -7.651313e-02
    outer loop
      vertex   5.208359e+00 1.225000e+01 -2.949887e+00
      vertex   5.227699e+00 -4.000000e+00 -3.201912e+00
      vertex   5.208359e+00 6.833334e+00 -2.949887e+00
    endloop
  endfacet
  facet normal -9.844017e-01 0.000000e+00 1.759353e-01
    outer loop
      vertex   5.208359e+00 1.225000e+01 -2.949887e+00
      vertex   5.208359e+00 6.833334e+00 -2.949887e+00
      vertex   5.252829e+00 1.225000e+01 -2.701064e+00
    endloop
  endfacet
  facet normal -9.844017e-01 0.000000e+00 1.759353e-01
    outer loop
      vertex   5.252829e+00 1.225000e+01 -2.701064e+00
      vertex   5.208359e+00 6.833334e+00 -2.949887e+00
      vertex   5.252829e+00 6.833334e+00 -2.701064e+00
    endloop
  endfacet
  facet normal -9.088409e-01 0.000000e+00 4.171430e-01
    outer loop
      vertex   5.252829e+00 1.225000e+01 -2.701064e+00
      vertex   5.252829e+00 6.833334e+00 -2.701064e+00
      vertex   5.358269e+00 1.225000e+01 -2.471340e+00
    endloop
  endfacet
  facet normal -9.088409e-01 0.000000e+00 4.171430e-01
    outer loop
      vertex   5.358269e+00 1.225000e+01 -2.471340e+00
      vertex   5.252829e+00 6.833334e+00 -2.701064e+00
      vertex   5.358269e+00 6.833334e+00 -2.471340e+00
    endloop
  endfacet
  facet normal -7.752136e-01 0.000000e+00 6.316993e-01
    outer loop
      vertex   5.358269e+00 1.225000e+01 -2.471340e+00
      vertex   5.358269e+00 6.833334e+00 -2.471340e+00
      vertex   5.517941e+00 1.225000e+01 -2.275392e+00
    endloop
  endfacet
  facet normal -7.752136e-01 0.000000e+00 6.316993e-01
    outer loop
      vertex   5.517941e+00 1.225000e+01 -2.275392e+00
      vertex   5.358269e+00 6.833334e+00 -2.471340e+00
      vertex   5.517941e+00 6.833334e+00 -2.275392e+00
    endloop
  endfacet
  facet normal -5.920574e-01 0.000000e+00 8.058958e-01
    outer loop
      vertex   5.517941e+00 1.225000e+01 -2.275392e+00
      vertex   5.517941e+00 6.833334e+00 -2.275392e+00
      vertex   5.721644e+00 1.225000e+01 -2.125740e+00
    endloop
  endfacet
  facet normal -5.920574e-01 0.000000e+00 8.058958e-01
    outer loop
      vertex   5.721644e+00 1.225000e+01 -2.125740e+00
      vertex   5.517941e+00 6.833334e+00 -2.275392e+00
      vertex   5.721644e+00 6.833334e+00 -2.125740e+00
    endloop
  endfacet
  facet normal -3.710743e-01 0.000000e+00 9.286032e-01
    outer loop
      vertex   5.721644e+00 1.225000e+01 -2.125740e+00
      vertex   5.721644e+00 6.833334e+00 -2.125740e+00
      vertex   5.956363e+00 1.225000e+01 -2.031945e+00
    endloop
  endfacet
  facet normal -3.710743e-01 0.000000e+00 9.286032e-01
    outer loop
      vertex   5.956363e+00 1.225000e+01 -2.031945e+00
      vertex   5.721644e+00 6.833334e+00 -2.125740e+00
      vertex   5.956363e+00 6.833334e+00 -2.031945e+00
    endloop
  endfacet
  facet normal -1.263830e-01 0.000000e+00 9.919815e-01
    outer loop
      vertex   5.956363e+00 1.225000e+01 -2.031945e+00
      vertex   5.956363e+00 6.833334e+00 -2.031945e+00
      vertex   6.207103e+00 -4.000000e+00 -2.000000e+00
    endloop
  endfacet
  facet normal -1.263830e-01 0.000000e+00 9.919815e-01
    outer loop
      vertex   6.207103e+00 -4.000000e+00 -2.000000e+00
      vertex   5.956363e+00 6.833334e+00 -2.031945e+00
      vertex   5.956363e+00 1.416667e+00 -2.031945e+00
    endloop
  endfacet
  facet normal -1.263830e-01 -8.108855e-17 9.919815e-01
    outer loop
      vertex   6.207103e+00 -4.000000e+00 -2.000000e+00
      vertex   5.956363e+00 1.416667e+00 -2.031945e+00
      vertex   5.956363e+00 -4.000000e+00 -2.031945e+00
    endloop
  endfacet
  facet normal -3.710743e-01 -7.613218e-17 9.286032e-01
    outer loop
      vertex   5.956363e+00 -4.000000e+00 -2.031945e+00
      vertex   5.956363e+00 1.416667e+00 -2.031945e+00
      vertex   5.721644e+00 -4.000000e+00 -2.125740e+00
    endloop
  endfacet
  facet normal -3.710743e-01 0.000000e+00 9.286032e-01
    outer loop
      vertex   5.721644e+00 -4.000000e+00 -2.125740e+00
      vertex   5.956363e+00 1.416667e+00 -2.031945e+00
      vertex   5.721644e+00 1.416667e+00 -2.125740e+00
    endloop
  endfacet
  facet normal -5.920574e-01 0.000000e+00 8.058958e-01
    outer loop
      vertex   5.721644e+00 -4.000000e+00 -2.125740e+00
      vertex   5.721644e+00 1.416667e+00 -2.125740e+00
      vertex   5.517941e+00 -4.000000e+00 -2.275392e+00
    endloop
  endfacet
  facet normal -5.920574e-01 0.000000e+00 8.058958e-01
    outer loop
      vertex   5.517941e+00 -4.000000e+00 -2.275392e+00
      vertex   5.721644e+00 1.416667e+00 -2.125740e+00
      vertex   5.517941e+00 1.416667e+00 -2.275392e+00
    endloop
  endfacet
  facet normal -7.752136e-01 0.000000e+00 6.316993e-01
    outer loop
      vertex   5.517941e+00 -4.000000e+00 -2.275392e+00
      vertex   5.517941e+00 1.416667e+00 -2.275392e+00
      vertex   5.358269e+00 -4.000000e+00 -2.471340e+00
    endloop
  endfacet
  facet normal -7.752136e-01 5.179031e-17 6.316993e-01
    outer loop
      vertex   5.358269e+00 -4.000000e+00 -2.471340e+00
      vertex   5.517941e+00 1.416667e+00 -2.275392e+00
      vertex   5.358269e+00 1.416667e+00 -2.471340e+00
    endloop
  endfacet
  facet normal -9.088409e-01 3.419976e-17 4.171430e-01
    outer loop
      vertex   5.358269e+00 -4.000000e+00 -2.471340e+00
      vertex   5.358269e+00 1.416667e+00 -2.471340e+00
      vertex   5.252829e+00 -4.000000e+00 -2.701064e+00
    endloop
  endfacet
  facet normal -9.088409e-01 0.000000e+00 4.171430e-01
    outer loop
      vertex   5.252829e+00 -4.000000e+00 -2.701064e+00
      vertex   5.358269e+00 1.416667e+00 -2.471340e+00
      vertex   5.252829e+00 1.416667e+00 -2.701064e+00
    endloop
  endfacet
  facet normal -9.844017e-01 0.000000e+00 1.759353e-01
    outer loop
      vertex   5.252829e+00 -4.000000e+00 -2.701064e+00
      vertex   5.252829e+00 1.416667e+00 -2.701064e+00
      vertex   5.208359e+00 -4.000000e+00 -2.949887e+00
    endloop
  endfacet
  facet normal -9.844017e-01 1.614137e-16 1.759353e-01
    outer loop
      vertex   5.208359e+00 -4.000000e+00 -2.949887e+00
      vertex   5.252829e+00 1.416667e+00 -2.701064e+00
      vertex   5.208359e+00 1.416667e+00 -2.949887e+00
    endloop
  endfacet
  facet normal -9.970686e-01 1.634907e-16 -7.651313e-02
    outer loop
      vertex   5.208359e+00 -4.000000e+00 -2.949887e+00
      vertex   5.208359e+00 1.416667e+00 -2.949887e+00
      vertex   5.227699e+00 -4.000000e+00 -3.201912e+00
    endloop
  endfacet
  facet normal -9.970686e-01 0.000000e+00 -7.651313e-02
    outer loop
      vertex   5.227699e+00 -4.000000e+00 -3.201912e+00
      vertex   5.208359e+00 1.416667e+00 -2.949887e+00
      vertex   5.208359e+00 6.833334e+00 -2.949887e+00
    endloop
  endfacet
  facet normal -3.710743e-01 0.000000e+00 9.286032e-01
    outer loop
      vertex   5.956363e+00 5.558333e+01 -2.031945e+00
      vertex   5.956363e+00 6.100000e+01 -2.031945e+00
      vertex   5.721644e+00 5.558333e+01 -2.125740e+00
    endloop
  endfacet
  facet normal -3.710743e-01 0.000000e+00 9.286032e-01
    outer loop
      vertex   5.721644e+00 5.558333e+01 -2.125740e+00
      vertex   5.956363e+00 6.100000e+01 -2.031945e+00
      vertex   5.721644e+00 6.100000e+01 -2.125740e+00
    endloop
  endfacet
  facet normal -5.920574e-01 0.000000e+00 8.058958e-01
    outer loop
      vertex   5.721644e+00 5.558333e+01 -2.125740e+00
      vertex   5.721644e+00 6.100000e+01 -2.125740e+00
      vertex   5.517941e+00 5.558333e+01 -2.275392e+00
    endloop
  endfacet
  facet normal -5.920574e-01 0.000000e+00 8.058958e-01
    outer loop
      vertex   5.517941e+00 5.558333e+01 -2.275392e+00
      vertex   5.721644e+00 6.100000e+01 -2.125740e+00
      vertex   5.517941e+00 6.100000e+01 -2.275392e+00
    endloop
  endfacet
  facet normal -7.752136e-01 0.000000e+00 6.316993e-01
    outer loop
      vertex   5.517941e+00 5.558333e+01 -2.275392e+00
      vertex   5.517941e+00 6.100000e+01 -2.275392e+00
      vertex   5.358269e+00 5.558333e+01 -2.471340e+00
    endloop
  endfacet
  facet normal -7.752136e-01 -5.179031e-17 6.316993e-01
    outer loop
      vertex   5.358269e+00 5.558333e+01 -2.471340e+00
      vertex   5.517941e+00 6.100000e+01 -2.275392e+00
      vertex   5.358269e+00 6.100000e+01 -2.471340e+00
    endloop
  endfacet
  facet normal -9.088409e-01 -3.419976e-17 4.171430e-01
    outer loop
      vertex   5.358269e+00 5.558333e+01 -2.471340e+00
      vertex   5.358269e+00 6.100000e+01 -2.471340e+00
      vertex   5.252829e+00 5.558333e+01 -2.701064e+00
    endloop
  endfacet
  facet normal -9.088409e-01 0.000000e+00 4.171430e-01
    outer loop
      vertex   5.252829e+00 5.558333e+01 -2.701064e+00
      vertex   5.358269e+00 6.100000e+01 -2.471340e+00
      vertex   5.252829e+00 6.100000e+01 -2.701064e+00
    endloop
  endfacet
  facet normal -9.844017e-01 0.000000e+00 1.759353e-01
    outer loop
      vertex   5.252829e+00 5.558333e+01 -2.701064e+00
      vertex   5.252829e+00 6.100000e+01 -2.701064e+00
      vertex   5.208359e+00 5.558333e+01 -2.949887e+00
    endloop
  endfacet
  facet normal -9.844017e-01 -1.614137e-16 1.759353e-01
    outer loop
      vertex   5.208359e+00 5.558333e+01 -2.949887e+00
      vertex   5.252829e+00 6.100000e+01 -2.701064e+00
      vertex   5.208359e+00 6.100000e+01 -2.949887e+00
    endloop
  endfacet
  facet normal -9.970686e-01 -1.634907e-16 -7.651313e-02
    outer loop
      vertex   5.208359e+00 5.558333e+01 -2.949887e+00
      vertex   5.208359e+00 6.100000e+01 -2.949887e+00
      vertex   5.227699e+00 6.100000e+01 -3.201912e+00
    endloop
  endfacet
  facet normal -9.970686e-01 0.000000e+00 -7.651313e-02
    outer loop
      vertex   5.227699e+00 -4.000000e+00 -3.201912e+00
      vertex   5.208359e+00 2.850000e+01 -2.949887e+00
      vertex   5.227699e+00 6.100000e+01 -3.201912e+00
    endloop
  endfacet
  facet normal -9.970686e-01 6.335043e-18 -7.651313e-02
    outer loop
      vertex   5.227699e+00 6.100000e+01 -3.201912e+00
      vertex   5.208359e+00 2.850000e+01 -2.949887e+00
      vertex   5.208359e+00 3.391667e+01 -2.949887e+00
    endloop
  endfacet
  facet normal -9.970686e-01 0.000000e+00 -7.651313e-02
    outer loop
      vertex   5.227699e+00 6.100000e+01 -3.201912e+00
      vertex   5.208359e+00 3.391667e+01 -2.949887e+00
      vertex   5.208359e+00 3.933333e+01 -2.949887e+00
    endloop
  endfacet
  facet normal -9.844017e-01 0.000000e+00 1.759353e-01
    outer loop
      vertex   5.208359e+00 3.933333e+01 -2.949887e+00
      vertex   5.208359e+00 3.391667e+01 -2.949887e+00
      vertex   5.252829e+00 3.933333e+01 -2.701064e+00
    endloop
  endfacet
  facet normal -9.844017e-01 0.000000e+00 1.759353e-01
    outer loop
      vertex   5.208359e+00 3.933333e+01 -2.949887e+00
      vertex   5.252829e+00 3.933333e+01 -2.701064e+00
      vertex   5.252829e+00 4.475000e+01 -2.701064e+00
    endloop
  endfacet
  facet normal -9.088409e-01 0.000000e+00 4.171430e-01
    outer loop
      vertex   5.252829e+00 4.475000e+01 -2.701064e+00
      vertex   5.252829e+00 3.933333e+01 -2.701064e+00
      vertex   5.358269e+00 4.475000e+01 -2.471340e+00
    endloop
  endfacet
  facet normal -9.088409e-01 0.000000e+00 4.171430e-01
    outer loop
      vertex   5.252829e+00 4.475000e+01 -2.701064e+00
      vertex   5.358269e+00 4.475000e+01 -2.471340e+00
      vertex   5.358269e+00 5.016667e+01 -2.471340e+00
    endloop
  endfacet
  facet normal -7.752136e-01 0.000000e+00 6.316993e-01
    outer loop
      vertex   5.358269e+00 5.016667e+01 -2.471340e+00
      vertex   5.358269e+00 4.475000e+01 -2.471340e+00
      vertex   5.517941e+00 5.016667e+01 -2.275392e+00
    endloop
  endfacet
  facet normal -7.752136e-01 0.000000e+00 6.316993e-01
    outer loop
      vertex   5.358269e+00 5.016667e+01 -2.471340e+00
      vertex   5.517941e+00 5.016667e+01 -2.275392e+00
      vertex   5.517941e+00 5.558333e+01 -2.275392e+00
    endloop
  endfacet
  facet normal -5.920574e-01 0.000000e+00 8.058958e-01
    outer loop
      vertex   5.517941e+00 5.558333e+01 -2.275392e+00
      vertex   5.517941e+00 5.016667e+01 -2.275392e+00
      vertex   5.721644e+00 5.558333e+01 -2.125740e+00
    endloop
  endfacet
  facet normal -1.263830e-01 0.000000e+00 9.919815e-01
    outer loop
      vertex   6.207103e+00 6.100000e+01 -2.000000e+00
      vertex   5.956363e+00 2.850000e+01 -2.031945e+00
      vertex   6.207103e+00 -4.000000e+00 -2.000000e+00
    endloop
  endfacet
  facet normal -1.263830e-01 0.000000e+00 9.919815e-01
    outer loop
      vertex   6.207103e+00 -4.000000e+00 -2.000000e+00
      vertex   5.956363e+00 2.850000e+01 -2.031945e+00
      vertex   5.956363e+00 2.308333e+01 -2.031945e+00
    endloop
  endfacet
  facet normal -1.263830e-01 0.000000e+00 9.919815e-01
    outer loop
      vertex   6.207103e+00 -4.000000e+00 -2.000000e+00
      vertex   5.956363e+00 2.308333e+01 -2.031945e+00
      vertex   5.956363e+00 1.766667e+01 -2.031945e+00
    endloop
  endfacet
  facet normal -3.710743e-01 0.000000e+00 9.286032e-01
    outer loop
      vertex   5.956363e+00 1.766667e+01 -2.031945e+00
      vertex   5.956363e+00 2.308333e+01 -2.031945e+00
      vertex   5.721644e+00 1.766667e+01 -2.125740e+00
    endloop
  endfacet
  facet normal -3.710743e-01 0.000000e+00 9.286032e-01
    outer loop
      vertex   5.956363e+00 1.766667e+01 -2.031945e+00
      vertex   5.721644e+00 1.766667e+01 -2.125740e+00
      vertex   5.721644e+00 1.225000e+01 -2.125740e+00
    endloop
  endfacet
  facet normal -5.920574e-01 0.000000e+00 8.058958e-01
    outer loop
      vertex   5.721644e+00 1.225000e+01 -2.125740e+00
      vertex   5.721644e+00 1.766667e+01 -2.125740e+00
      vertex   5.517941e+00 1.225000e+01 -2.275392e+00
    endloop
  endfacet
  facet normal -3.710743e-01 0.000000e+00 9.286032e-01
    outer loop
      vertex   5.956363e+00 5.016667e+01 -2.031945e+00
      vertex   5.956363e+00 5.558333e+01 -2.031945e+00
      vertex   5.721644e+00 5.016667e+01 -2.125740e+00
    endloop
  endfacet
  facet normal -3.710743e-01 0.000000e+00 9.286032e-01
    outer loop
      vertex   5.721644e+00 5.016667e+01 -2.125740e+00
      vertex   5.956363e+00 5.558333e+01 -2.031945e+00
      vertex   5.721644e+00 5.558333e+01 -2.125740e+00
    endloop
  endfacet
  facet normal -5.920574e-01 0.000000e+00 8.058958e-01
    outer loop
      vertex   5.721644e+00 5.016667e+01 -2.125740e+00
      vertex   5.721644e+00 5.558333e+01 -2.125740e+00
      vertex   5.517941e+00 5.016667e+01 -2.275392e+00
    endloop
  endfacet
  facet normal -1.263830e-01 0.000000e+00 9.919815e-01
    outer loop
      vertex   5.956363e+00 4.475000e+01 -2.031945e+00
      vertex   5.956363e+00 3.933333e+01 -2.031945e+00
      vertex   6.207103e+00 6.100000e+01 -2.000000e+00
    endloop
  endfacet
  facet normal -1.263830e-01 0.000000e+00 9.919815e-01
    outer loop
      vertex   6.207103e+00 6.100000e+01 -2.000000e+00
      vertex   5.956363e+00 3.933333e+01 -2.031945e+00
      vertex   5.956363e+00 3.391667e+01 -2.031945e+00
    endloop
  endfacet
  facet normal -1.263830e-01 0.000000e+00 9.919815e-01
    outer loop
      vertex   6.207103e+00 6.100000e+01 -2.000000e+00
      vertex   5.956363e+00 3.391667e+01 -2.031945e+00
      vertex   5.956363e+00 2.850000e+01 -2.031945e+00
    endloop
  endfacet
  facet normal -3.710743e-01 0.000000e+00 9.286032e-01
    outer loop
      vertex   5.956363e+00 2.850000e+01 -2.031945e+00
      vertex   5.956363e+00 3.391667e+01 -2.031945e+00
      vertex   5.721644e+00 2.850000e+01 -2.125740e+00
    endloop
  endfacet
  facet normal -3.710743e-01 0.000000e+00 9.286032e-01
    outer loop
      vertex   5.956363e+00 2.850000e+01 -2.031945e+00
      vertex   5.721644e+00 2.850000e+01 -2.125740e+00
      vertex   5.721644e+00 2.308333e+01 -2.125740e+00
    endloop
  endfacet
  facet normal -5.920574e-01 0.000000e+00 8.058958e-01
    outer loop
      vertex   5.721644e+00 2.308333e+01 -2.125740e+00
      vertex   5.721644e+00 2.850000e+01 -2.125740e+00
      vertex   5.517941e+00 2.308333e+01 -2.275392e+00
    endloop
  endfacet
  facet normal -5.920574e-01 0.000000e+00 8.058958e-01
    outer loop
      vertex   5.721644e+00 2.308333e+01 -2.125740e+00
      vertex   5.517941e+00 2.308333e+01 -2.275392e+00
      vertex   5.517941e+00 1.766667e+01 -2.275392e+00
    endloop
  endfacet
  facet normal -7.752136e-01 0.000000e+00 6.316993e-01
    outer loop
      vertex   5.517941e+00 1.766667e+01 -2.275392e+00
      vertex   5.517941e+00 2.308333e+01 -2.275392e+00
      vertex   5.358269e+00 1.766667e+01 -2.471340e+00
    endloop
  endfacet
  facet normal -7.752136e-01 0.000000e+00 6.316993e-01
    outer loop
      vertex   5.517941e+00 1.766667e+01 -2.275392e+00
      vertex   5.358269e+00 1.766667e+01 -2.471340e+00
      vertex   5.358269e+00 1.225000e+01 -2.471340e+00
    endloop
  endfacet
  facet normal -9.088409e-01 0.000000e+00 4.171430e-01
    outer loop
      vertex   5.358269e+00 1.225000e+01 -2.471340e+00
      vertex   5.358269e+00 1.766667e+01 -2.471340e+00
      vertex   5.252829e+00 1.225000e+01 -2.701064e+00
    endloop
  endfacet
  facet normal -3.710743e-01 0.000000e+00 9.286032e-01
    outer loop
      vertex   5.956363e+00 4.475000e+01 -2.031945e+00
      vertex   5.721644e+00 3.933333e+01 -2.125740e+00
      vertex   5.956363e+00 3.933333e+01 -2.031945e+00
    endloop
  endfacet
  facet normal -3.710743e-01 0.000000e+00 9.286032e-01
    outer loop
      vertex   5.956363e+00 3.933333e+01 -2.031945e+00
      vertex   5.721644e+00 3.933333e+01 -2.125740e+00
      vertex   5.721644e+00 3.391667e+01 -2.125740e+00
    endloop
  endfacet
  facet normal -3.710743e-01 0.000000e+00 9.286032e-01
    outer loop
      vertex   5.956363e+00 3.933333e+01 -2.031945e+00
      vertex   5.721644e+00 3.391667e+01 -2.125740e+00
      vertex   5.956363e+00 3.391667e+01 -2.031945e+00
    endloop
  endfacet
  facet normal -3.710743e-01 0.000000e+00 9.286032e-01
    outer loop
      vertex   5.956363e+00 3.391667e+01 -2.031945e+00
      vertex   5.721644e+00 3.391667e+01 -2.125740e+00
      vertex   5.721644e+00 2.850000e+01 -2.125740e+00
    endloop
  endfacet
  facet normal -1.263830e-01 0.000000e+00 9.919815e-01
    outer loop
      vertex   5.956363e+00 1.225000e+01 -2.031945e+00
      vertex   6.207103e+00 -4.000000e+00 -2.000000e+00
      vertex   5.956363e+00 1.766667e+01 -2.031945e+00
    endloop
  endfacet
  facet normal -3.710743e-01 0.000000e+00 9.286032e-01
    outer loop
      vertex   5.721644e+00 1.766667e+01 -2.125740e+00
      vertex   5.956363e+00 2.308333e+01 -2.031945e+00
      vertex   5.721644e+00 2.308333e+01 -2.125740e+00
    endloop
  endfacet
  facet normal -3.710743e-01 0.000000e+00 9.286032e-01
    outer loop
      vertex   5.721644e+00 2.308333e+01 -2.125740e+00
      vertex   5.956363e+00 2.308333e+01 -2.031945e+00
      vertex   5.956363e+00 2.850000e+01 -2.031945e+00
    endloop
  endfacet
  facet normal -3.710743e-01 0.000000e+00 9.286032e-01
    outer loop
      vertex   5.721644e+00 1.225000e+01 -2.125740e+00
      vertex   5.956363e+00 1.225000e+01 -2.031945e+00
      vertex   5.956363e+00 1.766667e+01 -2.031945e+00
    endloop
  endfacet
  facet normal -3.710743e-01 0.000000e+00 9.286032e-01
    outer loop
      vertex   5.721644e+00 1.416667e+00 -2.125740e+00
      vertex   5.956363e+00 1.416667e+00 -2.031945e+00
      vertex   5.956363e+00 6.833334e+00 -2.031945e+00
    endloop
  endfacet
  facet normal -3.710743e-01 0.000000e+00 9.286032e-01
    outer loop
      vertex   5.721644e+00 1.416667e+00 -2.125740e+00
      vertex   5.956363e+00 6.833334e+00 -2.031945e+00
      vertex   5.721644e+00 6.833334e+00 -2.125740e+00
    endloop
  endfacet
  facet normal -3.710743e-01 0.000000e+00 9.286032e-01
    outer loop
      vertex   5.956363e+00 5.016667e+01 -2.031945e+00
      vertex   5.721644e+00 5.016667e+01 -2.125740e+00
      vertex   5.721644e+00 4.475000e+01 -2.125740e+00
    endloop
  endfacet
  facet normal -5.920574e-01 0.000000e+00 8.058958e-01
    outer loop
      vertex   5.721644e+00 4.475000e+01 -2.125740e+00
      vertex   5.721644e+00 5.016667e+01 -2.125740e+00
      vertex   5.517941e+00 4.475000e+01 -2.275392e+00
    endloop
  endfacet
  facet normal -5.920574e-01 0.000000e+00 8.058958e-01
    outer loop
      vertex   5.721644e+00 4.475000e+01 -2.125740e+00
      vertex   5.517941e+00 4.475000e+01 -2.275392e+00
      vertex   5.517941e+00 3.933333e+01 -2.275392e+00
    endloop
  endfacet
  facet normal -7.752136e-01 0.000000e+00 6.316993e-01
    outer loop
      vertex   5.517941e+00 3.933333e+01 -2.275392e+00
      vertex   5.517941e+00 4.475000e+01 -2.275392e+00
      vertex   5.358269e+00 3.933333e+01 -2.471340e+00
    endloop
  endfacet
  facet normal -7.752136e-01 0.000000e+00 6.316993e-01
    outer loop
      vertex   5.517941e+00 3.933333e+01 -2.275392e+00
      vertex   5.358269e+00 3.933333e+01 -2.471340e+00
      vertex   5.358269e+00 3.391667e+01 -2.471340e+00
    endloop
  endfacet
  facet normal -9.088409e-01 0.000000e+00 4.171430e-01
    outer loop
      vertex   5.358269e+00 3.391667e+01 -2.471340e+00
      vertex   5.358269e+00 3.933333e+01 -2.471340e+00
      vertex   5.252829e+00 3.391667e+01 -2.701064e+00
    endloop
  endfacet
  facet normal -9.088409e-01 0.000000e+00 4.171430e-01
    outer loop
      vertex   5.358269e+00 3.391667e+01 -2.471340e+00
      vertex   5.252829e+00 3.391667e+01 -2.701064e+00
      vertex   5.252829e+00 2.850000e+01 -2.701064e+00
    endloop
  endfacet
  facet normal -9.844017e-01 0.000000e+00 1.759353e-01
    outer loop
      vertex   5.252829e+00 2.850000e+01 -2.701064e+00
      vertex   5.252829e+00 3.391667e+01 -2.701064e+00
      vertex   5.208359e+00 2.850000e+01 -2.949887e+00
    endloop
  endfacet
  facet normal -9.844017e-01 0.000000e+00 1.759353e-01
    outer loop
      vertex   5.252829e+00 2.850000e+01 -2.701064e+00
      vertex   5.208359e+00 2.850000e+01 -2.949887e+00
      vertex   5.208359e+00 2.308333e+01 -2.949887e+00
    endloop
  endfacet
  facet normal -9.970686e-01 0.000000e+00 -7.651313e-02
    outer loop
      vertex   5.208359e+00 2.308333e+01 -2.949887e+00
      vertex   5.208359e+00 2.850000e+01 -2.949887e+00
      vertex   5.227699e+00 -4.000000e+00 -3.201912e+00
    endloop
  endfacet
  facet normal -5.920574e-01 9.708048e-17 8.058958e-01
    outer loop
      vertex   5.517941e+00 4.475000e+01 -2.275392e+00
      vertex   5.721644e+00 5.016667e+01 -2.125740e+00
      vertex   5.517941e+00 5.016667e+01 -2.275392e+00
    endloop
  endfacet
  facet normal -5.920574e-01 0.000000e+00 8.058958e-01
    outer loop
      vertex   5.721644e+00 3.933333e+01 -2.125740e+00
      vertex   5.517941e+00 3.391667e+01 -2.275392e+00
      vertex   5.721644e+00 3.391667e+01 -2.125740e+00
    endloop
  endfacet
  facet normal -5.920574e-01 0.000000e+00 8.058958e-01
    outer loop
      vertex   5.721644e+00 3.391667e+01 -2.125740e+00
      vertex   5.517941e+00 3.391667e+01 -2.275392e+00
      vertex   5.517941e+00 2.850000e+01 -2.275392e+00
    endloop
  endfacet
  facet normal -5.920574e-01 0.000000e+00 8.058958e-01
    outer loop
      vertex   5.721644e+00 3.391667e+01 -2.125740e+00
      vertex   5.517941e+00 2.850000e+01 -2.275392e+00
      vertex   5.721644e+00 2.850000e+01 -2.125740e+00
    endloop
  endfacet
  facet normal -5.920574e-01 0.000000e+00 8.058958e-01
    outer loop
      vertex   5.721644e+00 2.850000e+01 -2.125740e+00
      vertex   5.517941e+00 2.850000e+01 -2.275392e+00
      vertex   5.517941e+00 2.308333e+01 -2.275392e+00
    endloop
  endfacet
  facet normal -5.920574e-01 0.000000e+00 8.058958e-01
    outer loop
      vertex   5.517941e+00 1.225000e+01 -2.275392e+00
      vertex   5.721644e+00 1.766667e+01 -2.125740e+00
      vertex   5.517941e+00 1.766667e+01 -2.275392e+00
    endloop
  endfacet
  facet normal -5.920574e-01 0.000000e+00 8.058958e-01
    outer loop
      vertex   5.517941e+00 1.766667e+01 -2.275392e+00
      vertex   5.721644e+00 1.766667e+01 -2.125740e+00
      vertex   5.721644e+00 2.308333e+01 -2.125740e+00
    endloop
  endfacet
  facet normal -5.920574e-01 0.000000e+00 8.058958e-01
    outer loop
      vertex   5.517941e+00 1.416667e+00 -2.275392e+00
      vertex   5.721644e+00 1.416667e+00 -2.125740e+00
      vertex   5.721644e+00 6.833334e+00 -2.125740e+00
    endloop
  endfacet
  facet normal -5.920574e-01 0.000000e+00 8.058958e-01
    outer loop
      vertex   5.517941e+00 1.416667e+00 -2.275392e+00
      vertex   5.721644e+00 6.833334e+00 -2.125740e+00
      vertex   5.517941e+00 6.833334e+00 -2.275392e+00
    endloop
  endfacet
  facet normal -7.752136e-01 0.000000e+00 6.316993e-01
    outer loop
      vertex   5.358269e+00 5.016667e+01 -2.471340e+00
      vertex   5.517941e+00 5.558333e+01 -2.275392e+00
      vertex   5.358269e+00 5.558333e+01 -2.471340e+00
    endloop
  endfacet
  facet normal -7.752136e-01 0.000000e+00 6.316993e-01
    outer loop
      vertex   5.358269e+00 3.933333e+01 -2.471340e+00
      vertex   5.517941e+00 4.475000e+01 -2.275392e+00
      vertex   5.358269e+00 4.475000e+01 -2.471340e+00
    endloop
  endfacet
  facet normal -7.752136e-01 1.267009e-16 6.316993e-01
    outer loop
      vertex   5.358269e+00 4.475000e+01 -2.471340e+00
      vertex   5.517941e+00 4.475000e+01 -2.275392e+00
      vertex   5.517941e+00 5.016667e+01 -2.275392e+00
    endloop
  endfacet
  facet normal -7.752136e-01 0.000000e+00 6.316993e-01
    outer loop
      vertex   5.517941e+00 3.391667e+01 -2.275392e+00
      vertex   5.358269e+00 2.850000e+01 -2.471340e+00
      vertex   5.517941e+00 2.850000e+01 -2.275392e+00
    endloop
  endfacet
  facet normal -7.752136e-01 0.000000e+00 6.316993e-01
    outer loop
      vertex   5.517941e+00 2.850000e+01 -2.275392e+00
      vertex   5.358269e+00 2.850000e+01 -2.471340e+00
      vertex   5.358269e+00 2.308333e+01 -2.471340e+00
    endloop
  endfacet
  facet normal -7.752136e-01 0.000000e+00 6.316993e-01
    outer loop
      vertex   5.517941e+00 2.850000e+01 -2.275392e+00
      vertex   5.358269e+00 2.308333e+01 -2.471340e+00
      vertex   5.517941e+00 2.308333e+01 -2.275392e+00
    endloop
  endfacet
  facet normal -7.752136e-01 0.000000e+00 6.316993e-01
    outer loop
      vertex   5.517941e+00 2.308333e+01 -2.275392e+00
      vertex   5.358269e+00 2.308333e+01 -2.471340e+00
      vertex   5.358269e+00 1.766667e+01 -2.471340e+00
    endloop
  endfacet
  facet normal -7.752136e-01 0.000000e+00 6.316993e-01
    outer loop
      vertex   5.358269e+00 1.225000e+01 -2.471340e+00
      vertex   5.517941e+00 1.225000e+01 -2.275392e+00
      vertex   5.517941e+00 1.766667e+01 -2.275392e+00
    endloop
  endfacet
  facet normal -7.752136e-01 0.000000e+00 6.316993e-01
    outer loop
      vertex   5.358269e+00 1.416667e+00 -2.471340e+00
      vertex   5.517941e+00 1.416667e+00 -2.275392e+00
      vertex   5.517941e+00 6.833334e+00 -2.275392e+00
    endloop
  endfacet
  facet normal -7.752136e-01 0.000000e+00 6.316993e-01
    outer loop
      vertex   5.358269e+00 1.416667e+00 -2.471340e+00
      vertex   5.517941e+00 6.833334e+00 -2.275392e+00
      vertex   5.358269e+00 6.833334e+00 -2.471340e+00
    endloop
  endfacet
  facet normal -9.088409e-01 0.000000e+00 4.171430e-01
    outer loop
      vertex   5.358269e+00 5.016667e+01 -2.471340e+00
      vertex   5.358269e+00 5.558333e+01 -2.471340e+00
      vertex   5.252829e+00 5.016667e+01 -2.701064e+00
    endloop
  endfacet
  facet normal -9.088409e-01 0.000000e+00 4.171430e-01
    outer loop
      vertex   5.252829e+00 5.016667e+01 -2.701064e+00
      vertex   5.358269e+00 5.558333e+01 -2.471340e+00
      vertex   5.252829e+00 5.558333e+01 -2.701064e+00
    endloop
  endfacet
  facet normal -9.844017e-01 0.000000e+00 1.759353e-01
    outer loop
      vertex   5.252829e+00 5.016667e+01 -2.701064e+00
      vertex   5.252829e+00 5.558333e+01 -2.701064e+00
      vertex   5.208359e+00 5.016667e+01 -2.949887e+00
    endloop
  endfacet
  facet normal -9.844017e-01 0.000000e+00 1.759353e-01
    outer loop
      vertex   5.208359e+00 5.016667e+01 -2.949887e+00
      vertex   5.252829e+00 5.558333e+01 -2.701064e+00
      vertex   5.208359e+00 5.558333e+01 -2.949887e+00
    endloop
  endfacet
  facet normal -9.970686e-01 0.000000e+00 -7.651313e-02
    outer loop
      vertex   5.208359e+00 5.016667e+01 -2.949887e+00
      vertex   5.208359e+00 5.558333e+01 -2.949887e+00
      vertex   5.227699e+00 6.100000e+01 -3.201912e+00
    endloop
  endfacet
  facet normal -9.088409e-01 0.000000e+00 4.171430e-01
    outer loop
      vertex   5.252829e+00 3.391667e+01 -2.701064e+00
      vertex   5.358269e+00 3.933333e+01 -2.471340e+00
      vertex   5.252829e+00 3.933333e+01 -2.701064e+00
    endloop
  endfacet
  facet normal -9.088409e-01 0.000000e+00 4.171430e-01
    outer loop
      vertex   5.252829e+00 3.933333e+01 -2.701064e+00
      vertex   5.358269e+00 3.933333e+01 -2.471340e+00
      vertex   5.358269e+00 4.475000e+01 -2.471340e+00
    endloop
  endfacet
  facet normal -9.088409e-01 0.000000e+00 4.171430e-01
    outer loop
      vertex   5.358269e+00 2.850000e+01 -2.471340e+00
      vertex   5.252829e+00 2.308333e+01 -2.701064e+00
      vertex   5.358269e+00 2.308333e+01 -2.471340e+00
    endloop
  endfacet
  facet normal -9.088409e-01 0.000000e+00 4.171430e-01
    outer loop
      vertex   5.358269e+00 2.308333e+01 -2.471340e+00
      vertex   5.252829e+00 2.308333e+01 -2.701064e+00
      vertex   5.252829e+00 1.766667e+01 -2.701064e+00
    endloop
  endfacet
  facet normal -9.088409e-01 0.000000e+00 4.171430e-01
    outer loop
      vertex   5.358269e+00 2.308333e+01 -2.471340e+00
      vertex   5.252829e+00 1.766667e+01 -2.701064e+00
      vertex   5.358269e+00 1.766667e+01 -2.471340e+00
    endloop
  endfacet
  facet normal -9.088409e-01 0.000000e+00 4.171430e-01
    outer loop
      vertex   5.358269e+00 1.766667e+01 -2.471340e+00
      vertex   5.252829e+00 1.766667e+01 -2.701064e+00
      vertex   5.252829e+00 1.225000e+01 -2.701064e+00
    endloop
  endfacet
  facet normal -9.088409e-01 0.000000e+00 4.171430e-01
    outer loop
      vertex   5.252829e+00 1.416667e+00 -2.701064e+00
      vertex   5.358269e+00 1.416667e+00 -2.471340e+00
      vertex   5.358269e+00 6.833334e+00 -2.471340e+00
    endloop
  endfacet
  facet normal -9.088409e-01 0.000000e+00 4.171430e-01
    outer loop
      vertex   5.252829e+00 1.416667e+00 -2.701064e+00
      vertex   5.358269e+00 6.833334e+00 -2.471340e+00
      vertex   5.252829e+00 6.833334e+00 -2.701064e+00
    endloop
  endfacet
  facet normal -9.088409e-01 0.000000e+00 4.171430e-01
    outer loop
      vertex   5.358269e+00 5.016667e+01 -2.471340e+00
      vertex   5.252829e+00 5.016667e+01 -2.701064e+00
      vertex   5.252829e+00 4.475000e+01 -2.701064e+00
    endloop
  endfacet
  facet normal -9.844017e-01 0.000000e+00 1.759353e-01
    outer loop
      vertex   5.252829e+00 4.475000e+01 -2.701064e+00
      vertex   5.252829e+00 5.016667e+01 -2.701064e+00
      vertex   5.208359e+00 4.475000e+01 -2.949887e+00
    endloop
  endfacet
  facet normal -9.844017e-01 0.000000e+00 1.759353e-01
    outer loop
      vertex   5.252829e+00 4.475000e+01 -2.701064e+00
      vertex   5.208359e+00 4.475000e+01 -2.949887e+00
      vertex   5.208359e+00 3.933333e+01 -2.949887e+00
    endloop
  endfacet
  facet normal -9.970686e-01 0.000000e+00 -7.651313e-02
    outer loop
      vertex   5.208359e+00 3.933333e+01 -2.949887e+00
      vertex   5.208359e+00 4.475000e+01 -2.949887e+00
      vertex   5.227699e+00 6.100000e+01 -3.201912e+00
    endloop
  endfacet
  facet normal -9.844017e-01 0.000000e+00 1.759353e-01
    outer loop
      vertex   5.208359e+00 4.475000e+01 -2.949887e+00
      vertex   5.252829e+00 5.016667e+01 -2.701064e+00
      vertex   5.208359e+00 5.016667e+01 -2.949887e+00
    endloop
  endfacet
  facet normal -9.844017e-01 -1.442417e-17 1.759353e-01
    outer loop
      vertex   5.208359e+00 2.850000e+01 -2.949887e+00
      vertex   5.252829e+00 3.391667e+01 -2.701064e+00
      vertex   5.208359e+00 3.391667e+01 -2.949887e+00
    endloop
  endfacet
  facet normal -9.844017e-01 0.000000e+00 1.759353e-01
    outer loop
      vertex   5.208359e+00 3.391667e+01 -2.949887e+00
      vertex   5.252829e+00 3.391667e+01 -2.701064e+00
      vertex   5.252829e+00 3.933333e+01 -2.701064e+00
    endloop
  endfacet
  facet normal -9.844017e-01 0.000000e+00 1.759353e-01
    outer loop
      vertex   5.208359e+00 1.225000e+01 -2.949887e+00
      vertex   5.252829e+00 1.225000e+01 -2.701064e+00
      vertex   5.252829e+00 1.766667e+01 -2.701064e+00
    endloop
  endfacet
  facet normal -9.844017e-01 0.000000e+00 1.759353e-01
    outer loop
      vertex   5.208359e+00 1.225000e+01 -2.949887e+00
      vertex   5.252829e+00 1.766667e+01 -2.701064e+00
      vertex   5.208359e+00 1.766667e+01 -2.949887e+00
    endloop
  endfacet
  facet normal -9.844017e-01 0.000000e+00 1.759353e-01
    outer loop
      vertex   5.208359e+00 1.766667e+01 -2.949887e+00
      vertex   5.252829e+00 1.766667e+01 -2.701064e+00
      vertex   5.252829e+00 2.308333e+01 -2.701064e+00
    endloop
  endfacet
  facet normal -9.844017e-01 0.000000e+00 1.759353e-01
    outer loop
      vertex   5.208359e+00 1.416667e+00 -2.949887e+00
      vertex   5.252829e+00 1.416667e+00 -2.701064e+00
      vertex   5.252829e+00 6.833334e+00 -2.701064e+00
    endloop
  endfacet
  facet normal -9.844017e-01 0.000000e+00 1.759353e-01
    outer loop
      vertex   5.208359e+00 1.416667e+00 -2.949887e+00
      vertex   5.252829e+00 6.833334e+00 -2.701064e+00
      vertex   5.208359e+00 6.833334e+00 -2.949887e+00
    endloop
  endfacet
  facet normal -9.970686e-01 0.000000e+00 -7.651313e-02
    outer loop
      vertex   5.227699e+00 6.100000e+01 -3.201912e+00
      vertex   5.208359e+00 4.475000e+01 -2.949887e+00
      vertex   5.208359e+00 5.016667e+01 -2.949887e+00
    endloop
  endfacet
  facet normal 9.798284e-01 0.000000e+00 -1.998407e-01
    outer loop
      vertex   1.975529e+01 -4.000000e+00 -3.199841e+00
      vertex   1.602288e+01 -4.000000e+00 -2.150000e+01
      vertex   1.975529e+01 6.100000e+01 -3.199841e+00
    endloop
  endfacet
  facet normal 9.798284e-01 0.000000e+00 -1.998407e-01
    outer loop
      vertex   1.975529e+01 6.100000e+01 -3.199841e+00
      vertex   1.602288e+01 -4.000000e+00 -2.150000e+01
      vertex   1.602288e+01 6.100000e+01 -2.150000e+01
    endloop
  endfacet
  facet normal -9.794036e-01 -0.000000e+00 -2.019121e-01
    outer loop
      vertex   5.227699e+00 6.100000e+01 -3.201912e+00
      vertex   9.000000e+00 6.100000e+01 -2.150000e+01
      vertex   5.227699e+00 -4.000000e+00 -3.201912e+00
    endloop
  endfacet
  facet normal -9.794036e-01 0.000000e+00 -2.019121e-01
    outer loop
      vertex   5.227699e+00 -4.000000e+00 -3.201912e+00
      vertex   9.000000e+00 6.100000e+01 -2.150000e+01
      vertex   9.000000e+00 -4.000000e+00 -2.150000e+01
    endloop
  endfacet
  facet normal 0.000000e+00 1.000000e+00 0.000000e+00
    outer loop
      vertex   1.902591e+01 6.100000e+01 -2.031870e+00
      vertex   1.926039e+01 6.100000e+01 -2.125447e+00
      vertex   1.877546e+01 6.100000e+01 -2.000000e+00
    endloop
  endfacet
  facet normal 0.000000e+00 1.000000e+00 0.000000e+00
    outer loop
      vertex   1.877546e+01 6.100000e+01 -2.000000e+00
      vertex   1.926039e+01 6.100000e+01 -2.125447e+00
      vertex   1.946396e+01 6.100000e+01 -2.274768e+00
    endloop
  endfacet
  facet normal 0.000000e+00 1.000000e+00 0.000000e+00
    outer loop
      vertex   1.877546e+01 6.100000e+01 -2.000000e+00
      vertex   1.946396e+01 6.100000e+01 -2.274768e+00
      vertex   1.962365e+01 6.100000e+01 -2.470315e+00
    endloop
  endfacet
  facet normal 0.000000e+00 1.000000e+00 0.000000e+00
    outer loop
      vertex   1.962365e+01 6.100000e+01 -2.470315e+00
      vertex   1.972928e+01 6.100000e+01 -2.699623e+00
      vertex   1.877546e+01 6.100000e+01 -2.000000e+00
    endloop
  endfacet
  facet normal 0.000000e+00 1.000000e+00 0.000000e+00
    outer loop
      vertex   1.877546e+01 6.100000e+01 -2.000000e+00
      vertex   1.972928e+01 6.100000e+01 -2.699623e+00
      vertex   1.977411e+01 6.100000e+01 -2.948077e+00
    endloop
  endfacet
  facet normal 0.000000e+00 1.000000e+00 0.000000e+00
    outer loop
      vertex   1.877546e+01 6.100000e+01 -2.000000e+00
      vertex   1.977411e+01 6.100000e+01 -2.948077e+00
      vertex   1.975529e+01 6.100000e+01 -3.199841e+00
    endloop
  endfacet
  facet normal 0.000000e+00 1.000000e+00 -0.000000e+00
    outer loop
      vertex   1.602288e+01 6.100000e+01 -2.150000e+01
      vertex   9.000000e+00 6.100000e+01 -2.150000e+01
      vertex   1.975529e+01 6.100000e+01 -3.199841e+00
    endloop
  endfacet
  facet normal 0.000000e+00 1.000000e+00 0.000000e+00
    outer loop
      vertex   1.975529e+01 6.100000e+01 -3.199841e+00
      vertex   9.000000e+00 6.100000e+01 -2.150000e+01
      vertex   5.227699e+00 6.100000e+01 -3.201912e+00
    endloop
  endfacet
  facet normal 0.000000e+00 1.000000e+00 0.000000e+00
    outer loop
      vertex   1.975529e+01 6.100000e+01 -3.199841e+00
      vertex   5.227699e+00 6.100000e+01 -3.201912e+00
      vertex   1.877546e+01 6.100000e+01 -2.000000e+00
    endloop
  endfacet
  facet normal 0.000000e+00 1.000000e+00 0.000000e+00
    outer loop
      vertex   1.877546e+01 6.100000e+01 -2.000000e+00
      vertex   5.227699e+00 6.100000e+01 -3.201912e+00
      vertex   6.207103e+00 6.100000e+01 -2.000000e+00
    endloop
  endfacet
  facet normal 0.000000e+00 1.000000e+00 0.000000e+00
    outer loop
      vertex   6.207103e+00 6.100000e+01 -2.000000e+00
      vertex   5.227699e+00 6.100000e+01 -3.201912e+00
      vertex   5.208359e+00 6.100000e+01 -2.949887e+00
    endloop
  endfacet
  facet normal 0.000000e+00 1.000000e+00 0.000000e+00
    outer loop
      vertex   6.207103e+00 6.100000e+01 -2.000000e+00
      vertex   5.208359e+00 6.100000e+01 -2.949887e+00
      vertex   5.252829e+00 6.100000e+01 -2.701064e+00
    endloop
  endfacet
  facet normal 0.000000e+00 1.000000e+00 0.000000e+00
    outer loop
      vertex   2.900000e+01 6.100000e+01 -2.150000e+01
      vertex   2.900000e+01 6.100000e+01 -2.450000e+01
      vertex   1.602288e+01 6.100000e+01 -2.150000e+01
    endloop
  endfacet
  facet normal 0.000000e+00 1.000000e+00 0.000000e+00
    outer loop
      vertex   1.602288e+01 6.100000e+01 -2.150000e+01
      vertex   2.900000e+01 6.100000e+01 -2.450000e+01
      vertex   9.000000e+00 6.100000e+01 -2.150000e+01
    endloop
  endfacet
  facet normal 0.000000e+00 1.000000e+00 0.000000e+00
    outer loop
      vertex   2.900000e+01 6.100000e+01 -2.450000e+01
      vertex   -4.000000e+00 6.100000e+01 -2.450000e+01
      vertex   9.000000e+00 6.100000e+01 -2.150000e+01
    endloop
  endfacet
  facet normal 0.000000e+00 1.000000e+00 0.000000e+00
    outer loop
      vertex   9.000000e+00 6.100000e+01 -2.150000e+01
      vertex   -4.000000e+00 6.100000e+01 -2.450000e+01
      vertex   -4.000000e+00 6.100000e+01 -2.150000e+01
    endloop
  endfacet
  facet normal 0.000000e+00 1.000000e+00 0.000000e+00
    outer loop
      vertex   5.252829e+00 6.100000e+01 -2.701064e+00
      vertex   5.358269e+00 6.100000e+01 -2.471340e+00
      vertex   6.207103e+00 6.100000e+01 -2.000000e+00
    endloop
  endfacet
  facet normal 0.000000e+00 1.000000e+00 0.000000e+00
    outer loop
      vertex   6.207103e+00 6.100000e+01 -2.000000e+00
      vertex   5.358269e+00 6.100000e+01 -2.471340e+00
      vertex   5.517941e+00 6.100000e+01 -2.275392e+00
    endloop
  endfacet
  facet normal 0.000000e+00 1.000000e+00 0.000000e+00
    outer loop
      vertex   6.207103e+00 6.100000e+01 -2.000000e+00
      vertex   5.517941e+00 6.100000e+01 -2.275392e+00
      vertex   5.721644e+00 6.100000e+01 -2.125740e+00
    endloop
  endfacet
  facet normal 0.000000e+00 1.000000e+00 0.000000e+00
    outer loop
      vertex   5.721644e+00 6.100000e+01 -2.125740e+00
      vertex   5.956363e+00 6.100000e+01 -2.031945e+00
      vertex   6.207103e+00 6.100000e+01 -2.000000e+00
    endloop
  endfacet
  facet normal 0.000000e+00 -1.000000e+00 0.000000e+00
    outer loop
      vertex   -4.000000e+00 -6.000000e+00 -2.150000e+01
      vertex   -4.000000e+00 -6.000000e+00 -2.450000e+01
      vertex   2.900000e+01 -6.000000e+00 -2.150000e+01
    endloop
  endfacet
  facet normal 0.000000e+00 -1.000000e+00 -0.000000e+00
    outer loop
      vertex   2.900000e+01 -6.000000e+00 -2.150000e+01
      vertex   -4.000000e+00 -6.000000e+00 -2.450000e+01
      vertex   2.900000e+01 -6.000000e+00 -2.450000e+01
    endloop
  endfacet
  facet normal 1.000000e+00 2.121023e-16 -0.000000e+00
    outer loop
      vertex   2.900000e+01 -6.000000e+00 -2.450000e+01
      vertex   2.900000e+01 6.100000e+01 -2.450000e+01
      vertex   2.900000e+01 -6.000000e+00 -2.150000e+01
    endloop
  endfacet
  facet normal 1.000000e+00 2.121023e-16 0.000000e+00
    outer loop
      vertex   2.900000e+01 -6.000000e+00 -2.150000e+01
      vertex   2.900000e+01 6.100000e+01 -2.450000e+01
      vertex   2.900000e+01 6.100000e+01 -2.150000e+01
    endloop
  endfacet
  facet normal 0.000000e+00 0.000000e+00 -1.000000e+00
    outer loop
      vertex   -4.000000e+00 -6.000000e+00 -2.450000e+01
      vertex   -4.000000e+00 6.100000e+01 -2.450000e+01
      vertex   2.900000e+01 -6.000000e+00 -2.450000e+01
    endloop
  endfacet
  facet normal 0.000000e+00 0.000000e+00 -1.000000e+00
    outer loop
      vertex   2.900000e+01 -6.000000e+00 -2.450000e+01
      vertex   -4.000000e+00 6.100000e+01 -2.450000e+01
      vertex   2.900000e+01 6.100000e+01 -2.450000e+01
    endloop
  endfacet
  facet normal -1.000000e+00 0.000000e+00 0.000000e+00
    outer loop
      vertex   -4.000000e+00 -6.000000e+00 -2.150000e+01
      vertex   -4.000000e+00 6.100000e+01 -2.150000e+01
      vertex   -4.000000e+00 -6.000000e+00 -2.450000e+01
    endloop
  endfacet
  facet normal -1.000000e+00 0.000000e+00 0.000000e+00
    outer loop
      vertex   -4.000000e+00 -6.000000e+00 -2.450000e+01
      vertex   -4.000000e+00 6.100000e+01 -2.150000e+01
      vertex   -4.000000e+00 6.100000e+01 -2.450000e+01
    endloop
  endfacet
  facet normal 0.000000e+00 0.000000e+00 1.000000e+00
    outer loop
      vertex   2.900000e+01 6.100000e+01 -2.150000e+01
      vertex   1.602288e+01 -4.000000e+00 -2.150000e+01
      vertex   2.900000e+01 -6.000000e+00 -2.150000e+01
    endloop
  endfacet
  facet normal 0.000000e+00 0.000000e+00 1.000000e+00
    outer loop
      vertex   2.900000e+01 -6.000000e+00 -2.150000e+01
      vertex   1.602288e+01 -4.000000e+00 -2.150000e+01
      vertex   9.000000e+00 -4.000000e+00 -2.150000e+01
    endloop
  endfacet
  facet normal 0.000000e+00 0.000000e+00 1.000000e+00
    outer loop
      vertex   2.900000e+01 -6.000000e+00 -2.150000e+01
      vertex   9.000000e+00 -4.000000e+00 -2.150000e+01
      vertex   -4.000000e+00 -6.000000e+00 -2.150000e+01
    endloop
  endfacet
  facet normal 0.000000e+00 0.000000e+00 1.000000e+00
    outer loop
      vertex   -4.000000e+00 -6.000000e+00 -2.150000e+01
      vertex   9.000000e+00 -4.000000e+00 -2.150000e+01
      vertex   -4.000000e+00 6.100000e+01 -2.150000e+01
    endloop
  endfacet
  facet normal -0.000000e+00 0.000000e+00 1.000000e+00
    outer loop
      vertex   -4.000000e+00 6.100000e+01 -2.150000e+01
      vertex   9.000000e+00 -4.000000e+00 -2.150000e+01
      vertex   9.000000e+00 6.100000e+01 -2.150000e+01
    endloop
  endfacet
  facet normal 0.000000e+00 0.000000e+00 1.000000e+00
    outer loop
      vertex   2.900000e+01 6.100000e+01 -2.150000e+01
      vertex   1.602288e+01 6.100000e+01 -2.150000e+01
      vertex   1.602288e+01 -4.000000e+00 -2.150000e+01
    endloop
  endfacet
endsolid
